<svg width="393" height="254" viewBox="0 0 393 254" fill="none" xmlns="http://www.w3.org/2000/svg">
<path d="M142.954 24.4047C142.954 16.4046 149.482 9.92064 157.523 9.92064H368.019C376.073 9.92064 382.601 16.4046 382.601 24.4047V180.9C382.601 188.9 376.073 195.384 368.019 195.384H157.523C149.482 195.384 142.954 188.9 142.954 180.9V24.4047Z" fill="#D8E9F1"/>
<path d="M382.601 121.597H311.064L259.67 91.8976C259.22 91.6269 258.798 91.3155 258.43 90.9365C258.048 90.571 257.735 90.1514 257.462 89.6912C257.203 89.2309 256.999 88.7436 256.863 88.2427C256.726 87.7284 256.658 87.214 256.658 86.6861V60.6689" stroke="white" stroke-width="10"/>
<path d="M256.658 52.9667V9.92064" stroke="white" stroke-width="10"/>
<path d="M222.3 122.111V39.8904" stroke="white" stroke-width="10"/>
<path d="M142.954 84.9128H173.496C175.131 84.9128 176.753 84.5879 178.266 83.9652C179.778 83.3426 181.155 82.4356 182.327 81.285C183.485 80.1344 184.399 78.7672 185.025 77.2511C185.652 75.7486 185.98 74.1377 185.98 72.5134V40.1612" stroke="white" stroke-width="10"/>
<path d="M185.98 48.0123C185.98 49.1629 186.211 50.3135 186.647 51.3694C187.097 52.4387 187.738 53.3998 188.569 54.212C189.387 55.0242 190.354 55.674 191.431 56.1207C192.494 56.5538 193.653 56.784 194.811 56.784H252.747" stroke="white" stroke-width="10"/>
<path d="M260.515 56.784H319.868C320.486 56.784 321.099 56.7298 321.708 56.6215C322.317 56.5132 322.912 56.3463 323.494 56.1207C324.075 55.9041 324.629 55.6379 325.156 55.322C325.683 55.0062 326.178 54.6452 326.642 54.2391L342.683 40.1612L374.601 12.1136" stroke="white" stroke-width="10" stroke-linecap="round"/>
<path d="M260.515 56.784V56.811C260.515 57.3254 260.42 57.8263 260.229 58.2865C260.024 58.7467 259.752 59.1799 259.384 59.5319C259.03 59.8973 258.607 60.1816 258.13 60.3711C257.667 60.5606 257.162 60.6689 256.658 60.6689H256.631C256.127 60.6689 255.622 60.5742 255.145 60.3847C254.668 60.1816 254.246 59.8973 253.892 59.5454C253.524 59.1935 253.237 58.7603 253.047 58.2865C252.842 57.8263 252.747 57.3254 252.747 56.811V56.784C252.747 56.2831 252.856 55.7823 253.047 55.322C253.251 54.8618 253.537 54.4286 253.892 54.0767C254.259 53.7247 254.682 53.4404 255.145 53.2509C255.622 53.0614 256.127 52.9667 256.631 52.9667H256.658C257.162 52.9667 257.653 53.0614 258.13 53.2509C258.593 53.454 259.016 53.7247 259.37 54.0902C259.738 54.4421 260.011 54.8618 260.215 55.322C260.406 55.7823 260.515 56.2831 260.515 56.784Z" stroke="white" stroke-width="10"/>
<path d="M382.601 40.1612H342.683" stroke="white" stroke-width="10"/>
<path d="M382.601 99.5457H311.064" stroke="white" stroke-width="10"/>
<path d="M311.064 9.92064V142.565C311.064 143.404 310.901 144.243 310.573 145.015C310.246 145.786 309.769 146.49 309.17 147.086C308.584 147.681 307.861 148.155 307.084 148.48C306.308 148.805 305.463 148.967 304.618 148.967H142.954" stroke="white" stroke-width="10"/>
<path d="M334.642 195.98L289.013 148.967" stroke="white" stroke-width="10"/>
<path d="M176.085 121.597L159.553 84.9128" stroke="white" stroke-width="10"/>
<path d="M142.954 40.1612H256.631" stroke="white" stroke-width="10"/>
<path d="M310.546 9.62285L260.706 56.4862" stroke="white" stroke-width="5"/>
<path d="M311.064 14.2523L266.157 56.4862" stroke="white" stroke-width="5"/>
<path d="M311.064 19.3691L271.595 56.4862" stroke="white" stroke-width="5"/>
<path d="M311.064 24.4859L277.033 56.4862" stroke="white" stroke-width="5"/>
<path d="M311.064 34.7195L287.923 56.4861" stroke="white" stroke-width="5"/>
<path d="M311.064 29.6027L282.485 56.4862" stroke="white" stroke-width="5"/>
<path d="M311.064 39.8363L293.36 56.4862" stroke="white" stroke-width="5"/>
<path d="M311.064 44.9531L298.812 56.4862" stroke="white" stroke-width="5"/>
<path d="M311.064 50.0699L304.25 56.4862" stroke="white" stroke-width="5"/>
<path d="M267.002 9.62285L256.658 19.3556" stroke="white" stroke-width="5"/>
<path d="M261.565 9.62285L256.658 14.2388" stroke="white" stroke-width="5"/>
<path d="M272.454 9.62285L256.658 24.4724" stroke="white" stroke-width="5"/>
<path d="M277.892 9.62285L256.631 29.6162" stroke="white" stroke-width="5"/>
<path d="M288.781 9.62285L256.631 39.8498" stroke="white" stroke-width="5"/>
<path d="M283.33 9.62285L256.631 34.733" stroke="white" stroke-width="5"/>
<path d="M294.219 9.62285L256.658 44.9395" stroke="white" stroke-width="5"/>
<path d="M299.657 9.62285L256.658 50.0563" stroke="white" stroke-width="5"/>
<path d="M305.108 9.62285L258.512 53.4405" stroke="white" stroke-width="5"/>
<path d="M290.444 149.049L240.617 195.912" stroke="white" stroke-width="5"/>
<path d="M292.338 152.392L246.055 195.912" stroke="white" stroke-width="5"/>
<path d="M294.941 155.059L251.493 195.912" stroke="white" stroke-width="5"/>
<path d="M297.531 157.739L256.944 195.912" stroke="white" stroke-width="5"/>
<path d="M302.723 163.086L267.834 195.912" stroke="white" stroke-width="5"/>
<path d="M300.134 160.419L262.382 195.912" stroke="white" stroke-width="5"/>
<path d="M305.326 165.766L273.272 195.912" stroke="white" stroke-width="5"/>
<path d="M307.916 168.446L278.71 195.912" stroke="white" stroke-width="5"/>
<path d="M310.519 171.113L284.147 195.912" stroke="white" stroke-width="5"/>
<path d="M312.959 173.631L289.258 195.898" stroke="white" stroke-width="5"/>
<path d="M315.548 176.311L294.71 195.912" stroke="white" stroke-width="5"/>
<path d="M318.137 178.964L300.12 195.912" stroke="white" stroke-width="5"/>
<path d="M320.727 181.645L305.558 195.912" stroke="white" stroke-width="5"/>
<path d="M323.316 184.311L310.982 195.912" stroke="white" stroke-width="5"/>
<path d="M325.906 186.978L316.42 195.912" stroke="white" stroke-width="5"/>
<path d="M328.495 189.645L321.831 195.912" stroke="white" stroke-width="5"/>
<path d="M331.085 192.325L327.282 195.912" stroke="white" stroke-width="5"/>
<path d="M246.914 149.049L236.556 158.781" stroke="white" stroke-width="5"/>
<path d="M241.476 149.049L236.556 153.665" stroke="white" stroke-width="5"/>
<path d="M252.352 149.049L236.556 163.898" stroke="white" stroke-width="5"/>
<path d="M257.789 149.049L236.542 169.042" stroke="white" stroke-width="5"/>
<path d="M268.679 149.049L236.542 179.276" stroke="white" stroke-width="5"/>
<path d="M263.241 149.049L236.542 174.159" stroke="white" stroke-width="5"/>
<path d="M274.117 149.049L236.556 184.365" stroke="white" stroke-width="5"/>
<path d="M279.568 149.049L236.556 189.482" stroke="white" stroke-width="5"/>
<path d="M285.006 149.049L236.556 194.599" stroke="white" stroke-width="5"/>
<path d="M236.828 195.384L236.528 129.136C236.515 128.121 236.297 127.12 235.902 126.186C235.506 125.265 234.92 124.412 234.198 123.708C233.476 122.991 232.603 122.436 231.663 122.043C230.723 121.664 229.714 121.461 228.692 121.461H142.831" stroke="white" stroke-width="10"/>
<path d="M152.412 52.9802C152.017 52.9802 151.703 52.6689 151.703 52.2763C151.703 51.8838 152.017 51.5724 152.412 51.5724C152.807 51.5724 153.134 51.8838 153.134 52.2763C153.134 52.6689 152.807 52.9802 152.412 52.9802Z" fill="#98C8DB"/>
<path d="M156.909 52.9802C156.514 52.9802 156.201 52.6689 156.201 52.2763C156.201 51.8838 156.514 51.5724 156.909 51.5724C157.305 51.5724 157.618 51.8838 157.618 52.2763C157.618 52.6689 157.305 52.9802 156.909 52.9802Z" fill="#98C8DB"/>
<path d="M161.407 52.9802C161.012 52.9802 160.685 52.6689 160.685 52.2763C160.685 51.8838 161.012 51.5724 161.407 51.5724C161.802 51.5724 162.116 51.8838 162.116 52.2763C162.116 52.6689 161.802 52.9802 161.407 52.9802Z" fill="#98C8DB"/>
<path d="M165.891 52.9802C165.495 52.9802 165.182 52.6689 165.182 52.2763C165.182 51.8838 165.495 51.5724 165.891 51.5724C166.286 51.5724 166.599 51.8838 166.599 52.2763C166.599 52.6689 166.286 52.9802 165.891 52.9802Z" fill="#98C8DB"/>
<path d="M170.388 52.9802C169.993 52.9802 169.666 52.6689 169.666 52.2763C169.666 51.8838 169.993 51.5724 170.388 51.5724C170.783 51.5724 171.097 51.8838 171.097 52.2763C171.097 52.6689 170.783 52.9802 170.388 52.9802Z" fill="#98C8DB"/>
<path d="M174.872 52.9802C174.477 52.9802 174.163 52.6689 174.163 52.2763C174.163 51.8838 174.477 51.5724 174.872 51.5724C175.267 51.5724 175.594 51.8838 175.594 52.2763C175.594 52.6689 175.267 52.9802 174.872 52.9802Z" fill="#98C8DB"/>
<path d="M147.928 52.9802C147.533 52.9802 147.219 52.6689 147.219 52.2763C147.219 51.8838 147.533 51.5724 147.928 51.5724C148.323 51.5724 148.637 51.8838 148.637 52.2763C148.637 52.6689 148.323 52.9802 147.928 52.9802Z" fill="#98C8DB"/>
<path d="M150.177 55.3085C149.781 55.3085 149.454 54.9971 149.454 54.6046C149.454 54.212 149.781 53.8871 150.177 53.8871C150.572 53.8871 150.885 54.212 150.885 54.6046C150.885 54.9971 150.572 55.3085 150.177 55.3085Z" fill="#98C8DB"/>
<path d="M154.661 55.3085C154.265 55.3085 153.952 54.9971 153.952 54.6046C153.952 54.212 154.265 53.8871 154.661 53.8871C155.056 53.8871 155.383 54.212 155.383 54.6046C155.383 54.9971 155.056 55.3085 154.661 55.3085Z" fill="#98C8DB"/>
<path d="M159.158 55.3085C158.763 55.3085 158.436 54.9971 158.436 54.6046C158.436 54.212 158.763 53.8871 159.158 53.8871C159.553 53.8871 159.867 54.212 159.867 54.6046C159.867 54.9971 159.553 55.3085 159.158 55.3085Z" fill="#98C8DB"/>
<path d="M163.642 55.3085C163.247 55.3085 162.933 54.9971 162.933 54.6046C162.933 54.212 163.247 53.8871 163.642 53.8871C164.037 53.8871 164.364 54.212 164.364 54.6046C164.364 54.9971 164.037 55.3085 163.642 55.3085Z" fill="#98C8DB"/>
<path d="M168.139 55.3085C167.744 55.3085 167.431 54.9971 167.431 54.6046C167.431 54.212 167.744 53.8871 168.139 53.8871C168.535 53.8871 168.848 54.212 168.848 54.6046C168.848 54.9971 168.535 55.3085 168.139 55.3085Z" fill="#98C8DB"/>
<path d="M172.637 55.3085C172.242 55.3085 171.915 54.9971 171.915 54.6046C171.915 54.212 172.242 53.8871 172.637 53.8871C173.019 53.8871 173.346 54.212 173.346 54.6046C173.346 54.9971 173.019 55.3085 172.637 55.3085Z" fill="#98C8DB"/>
<path d="M177.121 55.3085C176.726 55.3085 176.412 54.9971 176.412 54.6046C176.412 54.212 176.726 53.8871 177.121 53.8871C177.516 53.8871 177.83 54.212 177.83 54.6046C177.83 54.9971 177.516 55.3085 177.121 55.3085Z" fill="#98C8DB"/>
<path d="M145.679 55.3085C145.284 55.3085 144.971 54.9971 144.971 54.6046C144.971 54.212 145.284 53.8871 145.679 53.8871C146.075 53.8871 146.388 54.212 146.388 54.6046C146.388 54.9971 146.075 55.3085 145.679 55.3085Z" fill="#98C8DB"/>
<path d="M152.412 57.6368C152.017 57.6368 151.703 57.3119 151.703 56.9193C151.703 56.5268 152.017 56.2154 152.412 56.2154C152.807 56.2154 153.134 56.5268 153.134 56.9193C153.134 57.3119 152.807 57.6368 152.412 57.6368Z" fill="#98C8DB"/>
<path d="M156.909 57.6368C156.514 57.6368 156.201 57.3119 156.201 56.9193C156.201 56.5268 156.514 56.2154 156.909 56.2154C157.305 56.2154 157.618 56.5268 157.618 56.9193C157.618 57.3119 157.305 57.6368 156.909 57.6368Z" fill="#98C8DB"/>
<path d="M161.407 57.6368C161.012 57.6368 160.685 57.3119 160.685 56.9193C160.685 56.5268 161.012 56.2154 161.407 56.2154C161.802 56.2154 162.116 56.5268 162.116 56.9193C162.116 57.3119 161.802 57.6368 161.407 57.6368Z" fill="#98C8DB"/>
<path d="M165.891 57.6368C165.495 57.6368 165.182 57.3119 165.182 56.9193C165.182 56.5268 165.495 56.2154 165.891 56.2154C166.286 56.2154 166.599 56.5268 166.599 56.9193C166.599 57.3119 166.286 57.6368 165.891 57.6368Z" fill="#98C8DB"/>
<path d="M170.388 57.6368C169.993 57.6368 169.666 57.3119 169.666 56.9193C169.666 56.5268 169.993 56.2154 170.388 56.2154C170.783 56.2154 171.097 56.5268 171.097 56.9193C171.097 57.3119 170.783 57.6368 170.388 57.6368Z" fill="#98C8DB"/>
<path d="M174.872 57.6368C174.477 57.6368 174.163 57.3119 174.163 56.9193C174.163 56.5268 174.477 56.2154 174.872 56.2154C175.267 56.2154 175.594 56.5268 175.594 56.9193C175.594 57.3119 175.267 57.6368 174.872 57.6368Z" fill="#98C8DB"/>
<path d="M179.37 57.6368C178.974 57.6368 178.647 57.3119 178.647 56.9193C178.647 56.5268 178.974 56.2154 179.37 56.2154C179.765 56.2154 180.078 56.5268 180.078 56.9193C180.078 57.3119 179.765 57.6368 179.37 57.6368Z" fill="#98C8DB"/>
<path d="M179.37 52.9802C178.974 52.9802 178.647 52.6689 178.647 52.2763C178.647 51.8838 178.974 51.5724 179.37 51.5724C179.765 51.5724 180.078 51.8838 180.078 52.2763C180.078 52.6689 179.765 52.9802 179.37 52.9802Z" fill="#98C8DB"/>
<path d="M147.928 57.6368C147.533 57.6368 147.219 57.3119 147.219 56.9193C147.219 56.5268 147.533 56.2154 147.928 56.2154C148.323 56.2154 148.637 56.5268 148.637 56.9193C148.637 57.3119 148.323 57.6368 147.928 57.6368Z" fill="#98C8DB"/>
<path d="M150.177 59.9515C149.781 59.9515 149.454 59.6402 149.454 59.2476C149.454 58.855 149.781 58.5437 150.177 58.5437C150.572 58.5437 150.885 58.855 150.885 59.2476C150.885 59.6402 150.572 59.9515 150.177 59.9515Z" fill="#98C8DB"/>
<path d="M154.661 59.9515C154.265 59.9515 153.952 59.6402 153.952 59.2476C153.952 58.855 154.265 58.5437 154.661 58.5437C155.056 58.5437 155.383 58.855 155.383 59.2476C155.383 59.6402 155.056 59.9515 154.661 59.9515Z" fill="#98C8DB"/>
<path d="M159.158 59.9515C158.763 59.9515 158.436 59.6402 158.436 59.2476C158.436 58.855 158.763 58.5437 159.158 58.5437C159.553 58.5437 159.867 58.855 159.867 59.2476C159.867 59.6402 159.553 59.9515 159.158 59.9515Z" fill="#98C8DB"/>
<path d="M163.642 59.9515C163.247 59.9515 162.933 59.6402 162.933 59.2476C162.933 58.855 163.247 58.5437 163.642 58.5437C164.037 58.5437 164.364 58.855 164.364 59.2476C164.364 59.6402 164.037 59.9515 163.642 59.9515Z" fill="#98C8DB"/>
<path d="M168.139 59.9515C167.744 59.9515 167.431 59.6402 167.431 59.2476C167.431 58.855 167.744 58.5437 168.139 58.5437C168.535 58.5437 168.848 58.855 168.848 59.2476C168.848 59.6402 168.535 59.9515 168.139 59.9515Z" fill="#98C8DB"/>
<path d="M172.637 59.9515C172.242 59.9515 171.915 59.6402 171.915 59.2476C171.915 58.855 172.242 58.5437 172.637 58.5437C173.019 58.5437 173.346 58.855 173.346 59.2476C173.346 59.6402 173.019 59.9515 172.637 59.9515Z" fill="#98C8DB"/>
<path d="M177.121 59.9515C176.726 59.9515 176.412 59.6402 176.412 59.2476C176.412 58.855 176.726 58.5437 177.121 58.5437C177.516 58.5437 177.83 58.855 177.83 59.2476C177.83 59.6402 177.516 59.9515 177.121 59.9515Z" fill="#98C8DB"/>
<path d="M145.679 59.9515C145.284 59.9515 144.971 59.6402 144.971 59.2476C144.971 58.855 145.284 58.5437 145.679 58.5437C146.075 58.5437 146.388 58.855 146.388 59.2476C146.388 59.6402 146.075 59.9515 145.679 59.9515Z" fill="#98C8DB"/>
<path d="M152.412 62.2798C152.017 62.2798 151.703 61.9684 151.703 61.5759C151.703 61.1833 152.017 60.8584 152.412 60.8584C152.807 60.8584 153.134 61.1833 153.134 61.5759C153.134 61.9684 152.807 62.2798 152.412 62.2798Z" fill="#98C8DB"/>
<path d="M156.909 62.2798C156.514 62.2798 156.201 61.9684 156.201 61.5759C156.201 61.1833 156.514 60.8584 156.909 60.8584C157.305 60.8584 157.618 61.1833 157.618 61.5759C157.618 61.9684 157.305 62.2798 156.909 62.2798Z" fill="#98C8DB"/>
<path d="M161.407 62.2798C161.012 62.2798 160.685 61.9684 160.685 61.5759C160.685 61.1833 161.012 60.8584 161.407 60.8584C161.802 60.8584 162.116 61.1833 162.116 61.5759C162.116 61.9684 161.802 62.2798 161.407 62.2798Z" fill="#98C8DB"/>
<path d="M165.891 62.2798C165.495 62.2798 165.182 61.9684 165.182 61.5759C165.182 61.1833 165.495 60.8584 165.891 60.8584C166.286 60.8584 166.599 61.1833 166.599 61.5759C166.599 61.9684 166.286 62.2798 165.891 62.2798Z" fill="#98C8DB"/>
<path d="M170.388 62.2798C169.993 62.2798 169.666 61.9684 169.666 61.5759C169.666 61.1833 169.993 60.8584 170.388 60.8584C170.783 60.8584 171.097 61.1833 171.097 61.5759C171.097 61.9684 170.783 62.2798 170.388 62.2798Z" fill="#98C8DB"/>
<path d="M174.872 62.2798C174.477 62.2798 174.163 61.9684 174.163 61.5759C174.163 61.1833 174.477 60.8584 174.872 60.8584C175.267 60.8584 175.594 61.1833 175.594 61.5759C175.594 61.9684 175.267 62.2798 174.872 62.2798Z" fill="#98C8DB"/>
<path d="M179.37 62.2798C178.974 62.2798 178.647 61.9684 178.647 61.5759C178.647 61.1833 178.974 60.8584 179.37 60.8584C179.765 60.8584 180.078 61.1833 180.078 61.5759C180.078 61.9684 179.765 62.2798 179.37 62.2798Z" fill="#98C8DB"/>
<path d="M147.928 62.2798C147.533 62.2798 147.219 61.9684 147.219 61.5759C147.219 61.1833 147.533 60.8584 147.928 60.8584C148.323 60.8584 148.637 61.1833 148.637 61.5759C148.637 61.9684 148.323 62.2798 147.928 62.2798Z" fill="#98C8DB"/>
<path d="M150.177 64.6081C149.781 64.6081 149.454 64.2832 149.454 63.8906C149.454 63.5116 149.781 63.1867 150.177 63.1867C150.572 63.1867 150.885 63.5116 150.885 63.9042C150.885 64.2832 150.572 64.6081 150.177 64.6081Z" fill="#98C8DB"/>
<path d="M154.661 64.6081C154.265 64.6081 153.952 64.2832 153.952 63.8906C153.952 63.5116 154.265 63.1867 154.661 63.1867C155.056 63.1867 155.383 63.5116 155.383 63.9042C155.383 64.2832 155.056 64.6081 154.661 64.6081Z" fill="#98C8DB"/>
<path d="M159.158 64.6081C158.763 64.6081 158.436 64.2832 158.436 63.8906C158.436 63.5116 158.763 63.1867 159.158 63.1867C159.553 63.1867 159.867 63.5116 159.867 63.9042C159.867 64.2832 159.553 64.6081 159.158 64.6081Z" fill="#98C8DB"/>
<path d="M163.642 64.6081C163.247 64.6081 162.933 64.2832 162.933 63.8906C162.933 63.5116 163.247 63.1867 163.642 63.1867C164.037 63.1867 164.364 63.5116 164.364 63.9042C164.364 64.2832 164.037 64.6081 163.642 64.6081Z" fill="#98C8DB"/>
<path d="M168.139 64.6081C167.744 64.6081 167.431 64.2832 167.431 63.8906C167.431 63.5116 167.744 63.1867 168.139 63.1867C168.535 63.1867 168.848 63.5116 168.848 63.9042C168.848 64.2832 168.535 64.6081 168.139 64.6081Z" fill="#98C8DB"/>
<path d="M172.637 64.6081C172.242 64.6081 171.915 64.2832 171.915 63.8906C171.915 63.5116 172.242 63.1867 172.637 63.1867C173.019 63.1867 173.346 63.5116 173.346 63.9042C173.346 64.2832 173.019 64.6081 172.637 64.6081Z" fill="#98C8DB"/>
<path d="M177.121 64.6081C176.726 64.6081 176.412 64.2832 176.412 63.8906C176.412 63.5116 176.726 63.1867 177.121 63.1867C177.516 63.1867 177.83 63.5116 177.83 63.9042C177.83 64.2832 177.516 64.6081 177.121 64.6081Z" fill="#98C8DB"/>
<path d="M145.679 64.608C145.284 64.608 144.971 64.2832 144.971 63.8906C144.971 63.5116 145.284 63.1867 145.679 63.1867C146.075 63.1867 146.388 63.5116 146.388 63.9041C146.388 64.2832 146.075 64.608 145.679 64.608Z" fill="#98C8DB"/>
<path d="M152.412 66.9228C152.017 66.9228 151.703 66.6114 151.703 66.2189C151.703 65.8263 152.017 65.515 152.412 65.515C152.807 65.515 153.134 65.8263 153.134 66.2189C153.134 66.6114 152.807 66.9228 152.412 66.9228Z" fill="#98C8DB"/>
<path d="M156.909 66.9228C156.514 66.9228 156.201 66.6114 156.201 66.2189C156.201 65.8263 156.514 65.515 156.909 65.515C157.305 65.515 157.618 65.8263 157.618 66.2189C157.618 66.6114 157.305 66.9228 156.909 66.9228Z" fill="#98C8DB"/>
<path d="M161.407 66.9228C161.012 66.9228 160.685 66.6114 160.685 66.2189C160.685 65.8263 161.012 65.515 161.407 65.515C161.802 65.515 162.116 65.8263 162.116 66.2189C162.116 66.6114 161.802 66.9228 161.407 66.9228Z" fill="#98C8DB"/>
<path d="M165.891 66.9228C165.495 66.9228 165.182 66.6114 165.182 66.2189C165.182 65.8263 165.495 65.515 165.891 65.515C166.286 65.515 166.599 65.8263 166.599 66.2189C166.599 66.6114 166.286 66.9228 165.891 66.9228Z" fill="#98C8DB"/>
<path d="M170.388 66.9228C169.993 66.9228 169.666 66.6114 169.666 66.2189C169.666 65.8263 169.993 65.515 170.388 65.515C170.783 65.515 171.097 65.8263 171.097 66.2189C171.097 66.6114 170.783 66.9228 170.388 66.9228Z" fill="#98C8DB"/>
<path d="M174.872 66.9228C174.477 66.9228 174.163 66.6114 174.163 66.2189C174.163 65.8263 174.477 65.515 174.872 65.515C175.267 65.515 175.594 65.8263 175.594 66.2189C175.594 66.6114 175.267 66.9228 174.872 66.9228Z" fill="#98C8DB"/>
<path d="M179.37 66.9228C178.974 66.9228 178.647 66.6114 178.647 66.2189C178.647 65.8263 178.974 65.515 179.37 65.515C179.765 65.515 180.078 65.8263 180.078 66.2189C180.078 66.6114 179.765 66.9228 179.37 66.9228Z" fill="#98C8DB"/>
<path d="M147.928 66.9228C147.533 66.9228 147.219 66.6114 147.219 66.2189C147.219 65.8263 147.533 65.515 147.928 65.515C148.323 65.515 148.637 65.8263 148.637 66.2189C148.637 66.6114 148.323 66.9228 147.928 66.9228Z" fill="#98C8DB"/>
<path d="M150.177 69.2511C149.781 69.2511 149.454 68.9397 149.454 68.5472C149.454 68.1546 149.781 67.8433 150.177 67.8433C150.572 67.8433 150.885 68.1546 150.885 68.5472C150.885 68.9397 150.572 69.2511 150.177 69.2511Z" fill="#98C8DB"/>
<path d="M154.661 69.2511C154.265 69.2511 153.952 68.9397 153.952 68.5472C153.952 68.1546 154.265 67.8433 154.661 67.8433C155.056 67.8433 155.383 68.1546 155.383 68.5472C155.383 68.9397 155.056 69.2511 154.661 69.2511Z" fill="#98C8DB"/>
<path d="M159.158 69.2511C158.763 69.2511 158.436 68.9397 158.436 68.5472C158.436 68.1546 158.763 67.8433 159.158 67.8433C159.553 67.8433 159.867 68.1546 159.867 68.5472C159.867 68.9397 159.553 69.2511 159.158 69.2511Z" fill="#98C8DB"/>
<path d="M163.642 69.2511C163.247 69.2511 162.933 68.9397 162.933 68.5472C162.933 68.1546 163.247 67.8433 163.642 67.8433C164.037 67.8433 164.364 68.1546 164.364 68.5472C164.364 68.9397 164.037 69.2511 163.642 69.2511Z" fill="#98C8DB"/>
<path d="M168.139 69.2511C167.744 69.2511 167.431 68.9397 167.431 68.5472C167.431 68.1546 167.744 67.8433 168.139 67.8433C168.535 67.8433 168.848 68.1546 168.848 68.5472C168.848 68.9397 168.535 69.2511 168.139 69.2511Z" fill="#98C8DB"/>
<path d="M172.637 69.2511C172.242 69.2511 171.915 68.9397 171.915 68.5472C171.915 68.1546 172.242 67.8433 172.637 67.8433C173.019 67.8433 173.346 68.1546 173.346 68.5472C173.346 68.9397 173.019 69.2511 172.637 69.2511Z" fill="#98C8DB"/>
<path d="M177.121 69.2511C176.726 69.2511 176.412 68.9397 176.412 68.5472C176.412 68.1546 176.726 67.8433 177.121 67.8433C177.516 67.8433 177.83 68.1546 177.83 68.5472C177.83 68.9397 177.516 69.2511 177.121 69.2511Z" fill="#98C8DB"/>
<path d="M145.679 69.2511C145.284 69.2511 144.971 68.9397 144.971 68.5472C144.971 68.1546 145.284 67.8433 145.679 67.8433C146.075 67.8433 146.388 68.1546 146.388 68.5472C146.388 68.9397 146.075 69.2511 145.679 69.2511Z" fill="#98C8DB"/>
<path d="M152.412 71.5793C152.017 71.5793 151.703 71.268 151.703 70.8754C151.703 70.4829 152.017 70.158 152.412 70.158C152.807 70.158 153.134 70.4829 153.134 70.8754C153.134 71.268 152.807 71.5793 152.412 71.5793Z" fill="#98C8DB"/>
<path d="M156.909 71.5793C156.514 71.5793 156.201 71.268 156.201 70.8754C156.201 70.4829 156.514 70.158 156.909 70.158C157.305 70.158 157.618 70.4829 157.618 70.8754C157.618 71.268 157.305 71.5793 156.909 71.5793Z" fill="#98C8DB"/>
<path d="M161.407 71.5793C161.012 71.5793 160.685 71.268 160.685 70.8754C160.685 70.4829 161.012 70.158 161.407 70.158C161.802 70.158 162.116 70.4829 162.116 70.8754C162.116 71.268 161.802 71.5793 161.407 71.5793Z" fill="#98C8DB"/>
<path d="M165.891 71.5793C165.495 71.5793 165.182 71.268 165.182 70.8754C165.182 70.4829 165.495 70.158 165.891 70.158C166.286 70.158 166.599 70.4829 166.599 70.8754C166.599 71.268 166.286 71.5793 165.891 71.5793Z" fill="#98C8DB"/>
<path d="M170.388 71.5793C169.993 71.5793 169.666 71.268 169.666 70.8754C169.666 70.4829 169.993 70.158 170.388 70.158C170.783 70.158 171.097 70.4829 171.097 70.8754C171.097 71.268 170.783 71.5793 170.388 71.5793Z" fill="#98C8DB"/>
<path d="M174.872 71.5793C174.477 71.5793 174.163 71.268 174.163 70.8754C174.163 70.4829 174.477 70.158 174.872 70.158C175.267 70.158 175.594 70.4829 175.594 70.8754C175.594 71.268 175.267 71.5793 174.872 71.5793Z" fill="#98C8DB"/>
<path d="M179.37 71.5793C178.974 71.5793 178.647 71.268 178.647 70.8754C178.647 70.4829 178.974 70.158 179.37 70.158C179.765 70.158 180.078 70.4829 180.078 70.8754C180.078 71.268 179.765 71.5793 179.37 71.5793Z" fill="#98C8DB"/>
<path d="M147.928 71.5793C147.533 71.5793 147.219 71.268 147.219 70.8754C147.219 70.4829 147.533 70.158 147.928 70.158C148.323 70.158 148.637 70.4829 148.637 70.8754C148.637 71.268 148.323 71.5793 147.928 71.5793Z" fill="#98C8DB"/>
<path d="M150.177 73.9076C149.781 73.9076 149.454 73.5827 149.454 73.1902C149.454 72.7976 149.781 72.4863 150.177 72.4863C150.572 72.4863 150.885 72.7976 150.885 73.1902C150.885 73.5827 150.572 73.9076 150.177 73.9076Z" fill="#98C8DB"/>
<path d="M154.661 73.9076C154.265 73.9076 153.952 73.5827 153.952 73.1902C153.952 72.7976 154.265 72.4863 154.661 72.4863C155.056 72.4863 155.383 72.7976 155.383 73.1902C155.383 73.5827 155.056 73.9076 154.661 73.9076Z" fill="#98C8DB"/>
<path d="M159.158 73.9076C158.763 73.9076 158.436 73.5827 158.436 73.1902C158.436 72.7976 158.763 72.4863 159.158 72.4863C159.553 72.4863 159.867 72.7976 159.867 73.1902C159.867 73.5827 159.553 73.9076 159.158 73.9076Z" fill="#98C8DB"/>
<path d="M163.642 73.9076C163.247 73.9076 162.933 73.5827 162.933 73.1902C162.933 72.7976 163.247 72.4863 163.642 72.4863C164.037 72.4863 164.364 72.7976 164.364 73.1902C164.364 73.5827 164.037 73.9076 163.642 73.9076Z" fill="#98C8DB"/>
<path d="M168.139 73.9076C167.744 73.9076 167.431 73.5827 167.431 73.1902C167.431 72.7976 167.744 72.4863 168.139 72.4863C168.535 72.4863 168.848 72.7976 168.848 73.1902C168.848 73.5827 168.535 73.9076 168.139 73.9076Z" fill="#98C8DB"/>
<path d="M172.637 73.9076C172.242 73.9076 171.915 73.5827 171.915 73.1902C171.915 72.7976 172.242 72.4863 172.637 72.4863C173.019 72.4863 173.346 72.7976 173.346 73.1902C173.346 73.5827 173.019 73.9076 172.637 73.9076Z" fill="#98C8DB"/>
<path d="M177.121 73.9076C176.726 73.9076 176.412 73.5827 176.412 73.1902C176.412 72.7976 176.726 72.4863 177.121 72.4863C177.516 72.4863 177.83 72.7976 177.83 73.1902C177.83 73.5827 177.516 73.9076 177.121 73.9076Z" fill="#98C8DB"/>
<path d="M181.714 55.3085C181.319 55.3085 180.991 54.9971 180.991 54.6046C180.991 54.212 181.319 53.8871 181.714 53.8871C182.109 53.8871 182.422 54.212 182.422 54.6046C182.422 54.9971 182.109 55.3085 181.714 55.3085Z" fill="#98C8DB"/>
<path d="M181.714 59.9515C181.319 59.9515 180.991 59.6402 180.991 59.2476C180.991 58.855 181.319 58.5437 181.714 58.5437C182.109 58.5437 182.422 58.855 182.422 59.2476C182.422 59.6402 182.109 59.9515 181.714 59.9515Z" fill="#98C8DB"/>
<path d="M150.177 45.8871C149.781 45.8871 149.454 45.5758 149.454 45.1832C149.454 44.7906 149.781 44.4793 150.177 44.4793C150.572 44.4793 150.885 44.7906 150.885 45.1832C150.885 45.5758 150.572 45.8871 150.177 45.8871Z" fill="#98C8DB"/>
<path d="M154.661 45.8871C154.265 45.8871 153.952 45.5758 153.952 45.1832C153.952 44.7906 154.265 44.4793 154.661 44.4793C155.056 44.4793 155.383 44.7906 155.383 45.1832C155.383 45.5758 155.056 45.8871 154.661 45.8871Z" fill="#98C8DB"/>
<path d="M159.158 45.8871C158.763 45.8871 158.436 45.5758 158.436 45.1832C158.436 44.7906 158.763 44.4793 159.158 44.4793C159.553 44.4793 159.867 44.7906 159.867 45.1832C159.867 45.5758 159.553 45.8871 159.158 45.8871Z" fill="#98C8DB"/>
<path d="M163.642 45.8871C163.247 45.8871 162.933 45.5758 162.933 45.1832C162.933 44.7906 163.247 44.4793 163.642 44.4793C164.037 44.4793 164.364 44.7906 164.364 45.1832C164.364 45.5758 164.037 45.8871 163.642 45.8871Z" fill="#98C8DB"/>
<path d="M168.139 45.8871C167.744 45.8871 167.431 45.5758 167.431 45.1832C167.431 44.7906 167.744 44.4793 168.139 44.4793C168.535 44.4793 168.848 44.7906 168.848 45.1832C168.848 45.5758 168.535 45.8871 168.139 45.8871Z" fill="#98C8DB"/>
<path d="M172.637 45.8871C172.242 45.8871 171.915 45.5758 171.915 45.1832C171.915 44.7906 172.242 44.4793 172.637 44.4793C173.019 44.4793 173.346 44.7906 173.346 45.1832C173.346 45.5758 173.019 45.8871 172.637 45.8871Z" fill="#98C8DB"/>
<path d="M177.121 45.8871C176.726 45.8871 176.412 45.5758 176.412 45.1832C176.412 44.7906 176.726 44.4793 177.121 44.4793C177.516 44.4793 177.83 44.7906 177.83 45.1832C177.83 45.5758 177.516 45.8871 177.121 45.8871Z" fill="#98C8DB"/>
<path d="M145.679 45.8871C145.284 45.8871 144.971 45.5758 144.971 45.1832C144.971 44.7906 145.284 44.4793 145.679 44.4793C146.075 44.4793 146.388 44.7906 146.388 45.1832C146.388 45.5758 146.075 45.8871 145.679 45.8871Z" fill="#98C8DB"/>
<path d="M152.412 48.2154C152.017 48.2154 151.703 47.904 151.703 47.5115C151.703 47.1189 152.017 46.794 152.412 46.794C152.807 46.794 153.134 47.1189 153.134 47.5115C153.134 47.904 152.807 48.2154 152.412 48.2154Z" fill="#98C8DB"/>
<path d="M156.909 48.2154C156.514 48.2154 156.201 47.904 156.201 47.5115C156.201 47.1189 156.514 46.794 156.909 46.794C157.305 46.794 157.618 47.1189 157.618 47.5115C157.618 47.904 157.305 48.2154 156.909 48.2154Z" fill="#98C8DB"/>
<path d="M161.407 48.2154C161.012 48.2154 160.685 47.904 160.685 47.5115C160.685 47.1189 161.012 46.794 161.407 46.794C161.802 46.794 162.116 47.1189 162.116 47.5115C162.116 47.904 161.802 48.2154 161.407 48.2154Z" fill="#98C8DB"/>
<path d="M165.891 48.2154C165.495 48.2154 165.182 47.904 165.182 47.5115C165.182 47.1189 165.495 46.794 165.891 46.794C166.286 46.794 166.599 47.1189 166.599 47.5115C166.599 47.904 166.286 48.2154 165.891 48.2154Z" fill="#98C8DB"/>
<path d="M170.388 48.2154C169.993 48.2154 169.666 47.904 169.666 47.5115C169.666 47.1189 169.993 46.794 170.388 46.794C170.783 46.794 171.097 47.1189 171.097 47.5115C171.097 47.904 170.783 48.2154 170.388 48.2154Z" fill="#98C8DB"/>
<path d="M174.872 48.2154C174.477 48.2154 174.163 47.904 174.163 47.5115C174.163 47.1189 174.477 46.794 174.872 46.794C175.267 46.794 175.594 47.1189 175.594 47.5115C175.594 47.904 175.267 48.2154 174.872 48.2154Z" fill="#98C8DB"/>
<path d="M179.37 48.2154C178.974 48.2154 178.647 47.904 178.647 47.5115C178.647 47.1189 178.974 46.794 179.37 46.794C179.765 46.794 180.078 47.1189 180.078 47.5115C180.078 47.904 179.765 48.2154 179.37 48.2154Z" fill="#98C8DB"/>
<path d="M147.928 48.2154C147.533 48.2154 147.219 47.904 147.219 47.5115C147.219 47.1189 147.533 46.794 147.928 46.794C148.323 46.794 148.637 47.1189 148.637 47.5115C148.637 47.904 148.323 48.2154 147.928 48.2154Z" fill="#98C8DB"/>
<path d="M150.177 50.5436C149.781 50.5436 149.454 50.2188 149.454 49.8262C149.454 49.4336 149.781 49.1223 150.177 49.1223C150.572 49.1223 150.885 49.4336 150.885 49.8262C150.885 50.2188 150.572 50.5436 150.177 50.5436Z" fill="#98C8DB"/>
<path d="M154.661 50.5436C154.265 50.5436 153.952 50.2188 153.952 49.8262C153.952 49.4336 154.265 49.1223 154.661 49.1223C155.056 49.1223 155.383 49.4336 155.383 49.8262C155.383 50.2188 155.056 50.5436 154.661 50.5436Z" fill="#98C8DB"/>
<path d="M159.158 50.5436C158.763 50.5436 158.436 50.2188 158.436 49.8262C158.436 49.4336 158.763 49.1223 159.158 49.1223C159.553 49.1223 159.867 49.4336 159.867 49.8262C159.867 50.2188 159.553 50.5436 159.158 50.5436Z" fill="#98C8DB"/>
<path d="M163.642 50.5436C163.247 50.5436 162.933 50.2188 162.933 49.8262C162.933 49.4336 163.247 49.1223 163.642 49.1223C164.037 49.1223 164.364 49.4336 164.364 49.8262C164.364 50.2188 164.037 50.5436 163.642 50.5436Z" fill="#98C8DB"/>
<path d="M168.139 50.5436C167.744 50.5436 167.431 50.2188 167.431 49.8262C167.431 49.4336 167.744 49.1223 168.139 49.1223C168.535 49.1223 168.848 49.4336 168.848 49.8262C168.848 50.2188 168.535 50.5436 168.139 50.5436Z" fill="#98C8DB"/>
<path d="M172.637 50.5436C172.242 50.5436 171.915 50.2188 171.915 49.8262C171.915 49.4336 172.242 49.1223 172.637 49.1223C173.019 49.1223 173.346 49.4336 173.346 49.8262C173.346 50.2188 173.019 50.5436 172.637 50.5436Z" fill="#98C8DB"/>
<path d="M177.121 50.5436C176.726 50.5436 176.412 50.2188 176.412 49.8262C176.412 49.4336 176.726 49.1223 177.121 49.1223C177.516 49.1223 177.83 49.4336 177.83 49.8262C177.83 50.2188 177.516 50.5436 177.121 50.5436Z" fill="#98C8DB"/>
<path d="M145.679 50.5436C145.284 50.5436 144.971 50.2188 144.971 49.8262C144.971 49.4336 145.284 49.1223 145.679 49.1223C146.075 49.1223 146.388 49.4336 146.388 49.8262C146.388 50.2188 146.075 50.5436 145.679 50.5436Z" fill="#98C8DB"/>
<path d="M181.714 45.8871C181.319 45.8871 180.991 45.5758 180.991 45.1832C180.991 44.7906 181.319 44.4793 181.714 44.4793C182.109 44.4793 182.422 44.7906 182.422 45.1832C182.422 45.5758 182.109 45.8871 181.714 45.8871Z" fill="#98C8DB"/>
<path d="M181.714 50.5436C181.319 50.5436 180.991 50.2188 180.991 49.8262C180.991 49.4336 181.319 49.1223 181.714 49.1223C182.109 49.1223 182.422 49.4336 182.422 49.8262C182.422 50.2188 182.109 50.5436 181.714 50.5436Z" fill="#98C8DB"/>
<path d="M181.714 64.6081C181.319 64.6081 180.991 64.2832 180.991 63.8906C180.991 63.5116 181.319 63.1867 181.714 63.1867C182.109 63.1867 182.422 63.5116 182.422 63.9042C182.422 64.2832 182.109 64.6081 181.714 64.6081Z" fill="#98C8DB"/>
<path d="M181.714 69.2511C181.319 69.2511 180.991 68.9397 180.991 68.5472C180.991 68.1546 181.319 67.8433 181.714 67.8433C182.109 67.8433 182.422 68.1546 182.422 68.5472C182.422 68.9397 182.109 69.2511 181.714 69.2511Z" fill="#98C8DB"/>
<path d="M181.714 73.9076C181.319 73.9076 180.991 73.5827 180.991 73.1902C180.991 72.7976 181.319 72.4863 181.714 72.4863C182.109 72.4863 182.422 72.7976 182.422 73.1902C182.422 73.5827 182.109 73.9076 181.714 73.9076Z" fill="#98C8DB"/>
<path d="M145.679 73.9076C145.284 73.9076 144.971 73.5827 144.971 73.1902C144.971 72.7976 145.284 72.4863 145.679 72.4863C146.075 72.4863 146.388 72.7976 146.388 73.1902C146.388 73.5827 146.075 73.9076 145.679 73.9076Z" fill="#98C8DB"/>
<path d="M152.412 76.2223C152.017 76.2223 151.703 75.911 151.703 75.5185C151.703 75.1259 152.017 74.8146 152.412 74.8146C152.807 74.8146 153.134 75.1259 153.134 75.5185C153.134 75.911 152.807 76.2223 152.412 76.2223Z" fill="#98C8DB"/>
<path d="M156.909 76.2223C156.514 76.2223 156.201 75.911 156.201 75.5185C156.201 75.1259 156.514 74.8146 156.909 74.8146C157.305 74.8146 157.618 75.1259 157.618 75.5185C157.618 75.911 157.305 76.2223 156.909 76.2223Z" fill="#98C8DB"/>
<path d="M161.407 76.2223C161.012 76.2223 160.685 75.911 160.685 75.5185C160.685 75.1259 161.012 74.8146 161.407 74.8146C161.802 74.8146 162.116 75.1259 162.116 75.5185C162.116 75.911 161.802 76.2223 161.407 76.2223Z" fill="#98C8DB"/>
<path d="M165.891 76.2223C165.495 76.2223 165.182 75.911 165.182 75.5185C165.182 75.1259 165.495 74.8146 165.891 74.8146C166.286 74.8146 166.599 75.1259 166.599 75.5185C166.599 75.911 166.286 76.2223 165.891 76.2223Z" fill="#98C8DB"/>
<path d="M170.388 76.2223C169.993 76.2223 169.666 75.911 169.666 75.5185C169.666 75.1259 169.993 74.8146 170.388 74.8146C170.783 74.8146 171.097 75.1259 171.097 75.5185C171.097 75.911 170.783 76.2223 170.388 76.2223Z" fill="#98C8DB"/>
<path d="M174.872 76.2223C174.477 76.2223 174.163 75.911 174.163 75.5185C174.163 75.1259 174.477 74.8146 174.872 74.8146C175.267 74.8146 175.594 75.1259 175.594 75.5185C175.594 75.911 175.267 76.2223 174.872 76.2223Z" fill="#98C8DB"/>
<path d="M179.37 76.2223C178.974 76.2223 178.647 75.911 178.647 75.5185C178.647 75.1259 178.974 74.8146 179.37 74.8146C179.765 74.8146 180.078 75.1259 180.078 75.5185C180.078 75.911 179.765 76.2223 179.37 76.2223Z" fill="#98C8DB"/>
<path d="M147.928 76.2223C147.533 76.2223 147.219 75.911 147.219 75.5185C147.219 75.1259 147.533 74.8146 147.928 74.8146C148.323 74.8146 148.637 75.1259 148.637 75.5185C148.637 75.911 148.323 76.2223 147.928 76.2223Z" fill="#98C8DB"/>
<path d="M150.177 78.6589C149.781 78.6589 149.454 78.334 149.454 77.9415C149.454 77.5625 149.781 77.2376 150.177 77.2376C150.572 77.2376 150.885 77.5625 150.885 77.955C150.885 78.334 150.572 78.6589 150.177 78.6589Z" fill="#98C8DB"/>
<path d="M154.661 78.6589C154.265 78.6589 153.952 78.334 153.952 77.9415C153.952 77.5625 154.265 77.2376 154.661 77.2376C155.056 77.2376 155.383 77.5625 155.383 77.955C155.383 78.334 155.056 78.6589 154.661 78.6589Z" fill="#98C8DB"/>
<path d="M159.158 78.6589C158.763 78.6589 158.436 78.334 158.436 77.9415C158.436 77.5625 158.763 77.2376 159.158 77.2376C159.553 77.2376 159.867 77.5625 159.867 77.955C159.867 78.334 159.553 78.6589 159.158 78.6589Z" fill="#98C8DB"/>
<path d="M163.642 78.6589C163.247 78.6589 162.933 78.334 162.933 77.9415C162.933 77.5625 163.247 77.2376 163.642 77.2376C164.037 77.2376 164.364 77.5625 164.364 77.955C164.364 78.334 164.037 78.6589 163.642 78.6589Z" fill="#98C8DB"/>
<path d="M168.139 78.6589C167.744 78.6589 167.431 78.334 167.431 77.9415C167.431 77.5625 167.744 77.2376 168.139 77.2376C168.535 77.2376 168.848 77.5625 168.848 77.955C168.848 78.334 168.535 78.6589 168.139 78.6589Z" fill="#98C8DB"/>
<path d="M172.637 78.6589C172.242 78.6589 171.915 78.334 171.915 77.9415C171.915 77.5625 172.242 77.2376 172.637 77.2376C173.019 77.2376 173.346 77.5625 173.346 77.955C173.346 78.334 173.019 78.6589 172.637 78.6589Z" fill="#98C8DB"/>
<path d="M177.121 78.6589C176.726 78.6589 176.412 78.334 176.412 77.9415C176.412 77.5625 176.726 77.2376 177.121 77.2376C177.516 77.2376 177.83 77.5625 177.83 77.955C177.83 78.334 177.516 78.6589 177.121 78.6589Z" fill="#98C8DB"/>
<path d="M145.679 78.6589C145.284 78.6589 144.971 78.334 144.971 77.9415C144.971 77.5625 145.284 77.2376 145.679 77.2376C146.075 77.2376 146.388 77.5625 146.388 77.955C146.388 78.334 146.075 78.6589 145.679 78.6589Z" fill="#98C8DB"/>
<path d="M152.412 80.9737C152.017 80.9737 151.703 80.6488 151.703 80.2562C151.703 79.8637 152.017 79.5523 152.412 79.5523C152.807 79.5523 153.134 79.8637 153.134 80.2562C153.134 80.6488 152.807 80.9737 152.412 80.9737Z" fill="#98C8DB"/>
<path d="M156.909 80.9737C156.514 80.9737 156.201 80.6488 156.201 80.2562C156.201 79.8637 156.514 79.5523 156.909 79.5523C157.305 79.5523 157.618 79.8637 157.618 80.2562C157.618 80.6488 157.305 80.9737 156.909 80.9737Z" fill="#98C8DB"/>
<path d="M161.407 80.9737C161.012 80.9737 160.685 80.6488 160.685 80.2562C160.685 79.8637 161.012 79.5523 161.407 79.5523C161.802 79.5523 162.116 79.8637 162.116 80.2562C162.116 80.6488 161.802 80.9737 161.407 80.9737Z" fill="#98C8DB"/>
<path d="M165.891 80.9737C165.495 80.9737 165.182 80.6488 165.182 80.2562C165.182 79.8637 165.495 79.5523 165.891 79.5523C166.286 79.5523 166.599 79.8637 166.599 80.2562C166.599 80.6488 166.286 80.9737 165.891 80.9737Z" fill="#98C8DB"/>
<path d="M170.388 80.9737C169.993 80.9737 169.666 80.6488 169.666 80.2562C169.666 79.8637 169.993 79.5523 170.388 79.5523C170.783 79.5523 171.097 79.8637 171.097 80.2562C171.097 80.6488 170.783 80.9737 170.388 80.9737Z" fill="#98C8DB"/>
<path d="M174.872 80.9737C174.477 80.9737 174.163 80.6488 174.163 80.2562C174.163 79.8637 174.477 79.5523 174.872 79.5523C175.267 79.5523 175.594 79.8637 175.594 80.2562C175.594 80.6488 175.267 80.9737 174.872 80.9737Z" fill="#98C8DB"/>
<path d="M147.928 80.9737C147.533 80.9737 147.219 80.6488 147.219 80.2562C147.219 79.8637 147.533 79.5523 147.928 79.5523C148.323 79.5523 148.637 79.8637 148.637 80.2562C148.637 80.6488 148.323 80.9737 147.928 80.9737Z" fill="#98C8DB"/>
<path d="M322.376 111.363C321.994 111.363 321.667 111.038 321.667 110.646C321.667 110.253 321.994 109.942 322.376 109.942C322.771 109.942 323.098 110.253 323.098 110.646C323.098 111.038 322.771 111.363 322.376 111.363Z" fill="#98C8DB"/>
<path d="M326.873 111.363C326.478 111.363 326.165 111.038 326.165 110.646C326.165 110.253 326.478 109.942 326.873 109.942C327.269 109.942 327.582 110.253 327.582 110.646C327.582 111.038 327.269 111.363 326.873 111.363Z" fill="#98C8DB"/>
<path d="M331.371 111.363C330.975 111.363 330.648 111.038 330.648 110.646C330.648 110.253 330.975 109.942 331.371 109.942C331.766 109.942 332.079 110.253 332.079 110.646C332.079 111.038 331.766 111.363 331.371 111.363Z" fill="#98C8DB"/>
<path d="M335.855 111.363C335.459 111.363 335.146 111.038 335.146 110.646C335.146 110.253 335.459 109.942 335.855 109.942C336.25 109.942 336.577 110.253 336.577 110.646C336.577 111.038 336.25 111.363 335.855 111.363Z" fill="#98C8DB"/>
<path d="M340.352 111.363C339.957 111.363 339.63 111.038 339.63 110.646C339.63 110.253 339.957 109.942 340.352 109.942C340.748 109.942 341.061 110.253 341.061 110.646C341.061 111.038 340.748 111.363 340.352 111.363Z" fill="#98C8DB"/>
<path d="M344.836 111.363C344.441 111.363 344.127 111.038 344.127 110.646C344.127 110.253 344.441 109.942 344.836 109.942C345.231 109.942 345.558 110.253 345.558 110.646C345.558 111.038 345.231 111.363 344.836 111.363Z" fill="#98C8DB"/>
<path d="M317.892 111.363C317.497 111.363 317.183 111.038 317.183 110.646C317.183 110.253 317.497 109.942 317.892 109.942C318.287 109.942 318.601 110.253 318.601 110.646C318.601 111.038 318.287 111.363 317.892 111.363Z" fill="#98C8DB"/>
<path d="M320.141 113.678C319.746 113.678 319.418 113.366 319.418 112.974C319.418 112.581 319.746 112.27 320.141 112.27C320.536 112.27 320.849 112.581 320.849 112.974C320.849 113.366 320.536 113.678 320.141 113.678Z" fill="#98C8DB"/>
<path d="M324.625 113.678C324.229 113.678 323.916 113.366 323.916 112.974C323.916 112.581 324.229 112.27 324.625 112.27C325.02 112.27 325.347 112.581 325.347 112.974C325.347 113.366 325.02 113.678 324.625 113.678Z" fill="#98C8DB"/>
<path d="M329.122 113.678C328.727 113.678 328.4 113.366 328.4 112.974C328.4 112.581 328.727 112.27 329.122 112.27C329.517 112.27 329.831 112.581 329.831 112.974C329.831 113.366 329.517 113.678 329.122 113.678Z" fill="#98C8DB"/>
<path d="M333.606 113.678C333.211 113.678 332.897 113.366 332.897 112.974C332.897 112.581 333.211 112.27 333.606 112.27C334.001 112.27 334.328 112.581 334.328 112.974C334.328 113.366 334.001 113.678 333.606 113.678Z" fill="#98C8DB"/>
<path d="M338.103 113.678C337.708 113.678 337.395 113.366 337.395 112.974C337.395 112.581 337.708 112.27 338.103 112.27C338.499 112.27 338.812 112.581 338.812 112.974C338.812 113.366 338.499 113.678 338.103 113.678Z" fill="#98C8DB"/>
<path d="M342.601 113.678C342.206 113.678 341.879 113.366 341.879 112.974C341.879 112.581 342.206 112.27 342.587 112.27C342.982 112.27 343.31 112.581 343.31 112.974C343.31 113.366 342.982 113.678 342.587 113.678H342.601Z" fill="#98C8DB"/>
<path d="M347.085 113.678C346.69 113.678 346.376 113.366 346.376 112.974C346.376 112.581 346.69 112.27 347.085 112.27C347.48 112.27 347.794 112.581 347.794 112.974C347.794 113.366 347.48 113.678 347.085 113.678Z" fill="#98C8DB"/>
<path d="M315.643 113.678C315.248 113.678 314.935 113.366 314.935 112.974C314.935 112.581 315.248 112.27 315.643 112.27C316.038 112.27 316.366 112.581 316.366 112.974C316.366 113.366 316.038 113.678 315.643 113.678Z" fill="#98C8DB"/>
<path d="M322.376 116.006C321.994 116.006 321.667 115.695 321.667 115.302C321.667 114.91 321.994 114.585 322.376 114.585C322.771 114.585 323.098 114.91 323.098 115.302C323.098 115.695 322.771 116.006 322.376 116.006Z" fill="#98C8DB"/>
<path d="M326.873 116.006C326.478 116.006 326.165 115.695 326.165 115.302C326.165 114.91 326.478 114.585 326.873 114.585C327.269 114.585 327.582 114.91 327.582 115.302C327.582 115.695 327.269 116.006 326.873 116.006Z" fill="#98C8DB"/>
<path d="M331.371 116.006C330.975 116.006 330.648 115.695 330.648 115.302C330.648 114.91 330.975 114.585 331.371 114.585C331.766 114.585 332.079 114.91 332.079 115.302C332.079 115.695 331.766 116.006 331.371 116.006Z" fill="#98C8DB"/>
<path d="M335.855 116.006C335.459 116.006 335.146 115.695 335.146 115.302C335.146 114.91 335.459 114.585 335.855 114.585C336.25 114.585 336.577 114.91 336.577 115.302C336.577 115.695 336.25 116.006 335.855 116.006Z" fill="#98C8DB"/>
<path d="M340.352 116.006C339.957 116.006 339.63 115.695 339.63 115.302C339.63 114.91 339.957 114.585 340.352 114.585C340.748 114.585 341.061 114.91 341.061 115.302C341.061 115.695 340.748 116.006 340.352 116.006Z" fill="#98C8DB"/>
<path d="M344.836 116.006C344.441 116.006 344.127 115.695 344.127 115.302C344.127 114.91 344.441 114.585 344.836 114.585C345.231 114.585 345.558 114.91 345.558 115.302C345.558 115.695 345.231 116.006 344.836 116.006Z" fill="#98C8DB"/>
<path d="M349.334 116.006C348.938 116.006 348.625 115.695 348.625 115.302C348.625 114.91 348.938 114.585 349.334 114.585C349.729 114.585 350.042 114.91 350.042 115.302C350.042 115.695 349.729 116.006 349.334 116.006Z" fill="#98C8DB"/>
<path d="M349.334 111.363C348.938 111.363 348.625 111.038 348.625 110.646C348.625 110.253 348.938 109.942 349.334 109.942C349.729 109.942 350.042 110.253 350.042 110.646C350.042 111.038 349.729 111.363 349.334 111.363Z" fill="#98C8DB"/>
<path d="M317.892 116.006C317.497 116.006 317.183 115.695 317.183 115.302C317.183 114.91 317.497 114.585 317.892 114.585C318.287 114.585 318.601 114.91 318.601 115.302C318.601 115.695 318.287 116.006 317.892 116.006Z" fill="#98C8DB"/>
<path d="M320.141 118.334C319.746 118.334 319.418 118.009 319.418 117.617C319.418 117.238 319.746 116.913 320.141 116.913C320.536 116.913 320.849 117.238 320.849 117.63C320.849 118.01 320.536 118.334 320.141 118.334Z" fill="#98C8DB"/>
<path d="M324.625 118.334C324.229 118.334 323.916 118.009 323.916 117.617C323.916 117.238 324.229 116.913 324.625 116.913C325.02 116.913 325.347 117.238 325.347 117.63C325.347 118.01 325.02 118.334 324.625 118.334Z" fill="#98C8DB"/>
<path d="M329.122 118.334C328.727 118.334 328.4 118.009 328.4 117.617C328.4 117.238 328.727 116.913 329.122 116.913C329.517 116.913 329.831 117.238 329.831 117.63C329.831 118.01 329.517 118.334 329.122 118.334Z" fill="#98C8DB"/>
<path d="M333.606 118.334C333.211 118.334 332.897 118.009 332.897 117.617C332.897 117.238 333.211 116.913 333.606 116.913C334.001 116.913 334.328 117.238 334.328 117.63C334.328 118.01 334.001 118.334 333.606 118.334Z" fill="#98C8DB"/>
<path d="M338.103 118.334C337.708 118.334 337.395 118.009 337.395 117.617C337.395 117.238 337.708 116.913 338.103 116.913C338.499 116.913 338.812 117.238 338.812 117.63C338.812 118.01 338.499 118.334 338.103 118.334Z" fill="#98C8DB"/>
<path d="M342.601 118.334C342.206 118.334 341.879 118.009 341.879 117.617C341.879 117.238 342.206 116.913 342.587 116.913C342.982 116.913 343.31 117.238 343.31 117.63C343.31 118.01 342.982 118.334 342.587 118.334H342.601Z" fill="#98C8DB"/>
<path d="M347.085 118.334C346.69 118.334 346.376 118.009 346.376 117.617C346.376 117.238 346.69 116.913 347.085 116.913C347.48 116.913 347.794 117.238 347.794 117.63C347.794 118.01 347.48 118.334 347.085 118.334Z" fill="#98C8DB"/>
<path d="M315.643 118.334C315.248 118.334 314.935 118.009 314.935 117.617C314.935 117.238 315.248 116.913 315.643 116.913C316.038 116.913 316.366 117.238 316.366 117.63C316.366 118.01 316.038 118.334 315.643 118.334Z" fill="#98C8DB"/>
<path d="M351.678 113.678C351.282 113.678 350.955 113.366 350.955 112.974C350.955 112.581 351.282 112.27 351.678 112.27C352.073 112.27 352.386 112.581 352.386 112.974C352.386 113.366 352.073 113.678 351.678 113.678Z" fill="#98C8DB"/>
<path d="M351.678 118.334C351.282 118.334 350.955 118.009 350.955 117.617C350.955 117.238 351.282 116.913 351.678 116.913C352.073 116.913 352.386 117.238 352.386 117.63C352.386 118.01 352.073 118.334 351.678 118.334Z" fill="#98C8DB"/>
<path d="M320.141 104.27C319.746 104.27 319.418 103.945 319.418 103.553C319.418 103.16 319.746 102.849 320.141 102.849C320.536 102.849 320.849 103.16 320.849 103.553C320.849 103.945 320.536 104.27 320.141 104.27Z" fill="#98C8DB"/>
<path d="M324.625 104.27C324.229 104.27 323.916 103.945 323.916 103.553C323.916 103.16 324.229 102.849 324.625 102.849C325.02 102.849 325.347 103.16 325.347 103.553C325.347 103.945 325.02 104.27 324.625 104.27Z" fill="#98C8DB"/>
<path d="M329.122 104.27C328.727 104.27 328.4 103.945 328.4 103.553C328.4 103.16 328.727 102.849 329.122 102.849C329.517 102.849 329.831 103.16 329.831 103.553C329.831 103.945 329.517 104.27 329.122 104.27Z" fill="#98C8DB"/>
<path d="M333.606 104.27C333.211 104.27 332.897 103.945 332.897 103.553C332.897 103.16 333.211 102.849 333.606 102.849C334.001 102.849 334.328 103.16 334.328 103.553C334.328 103.945 334.001 104.27 333.606 104.27Z" fill="#98C8DB"/>
<path d="M338.103 104.27C337.708 104.27 337.395 103.945 337.395 103.553C337.395 103.16 337.708 102.849 338.103 102.849C338.499 102.849 338.812 103.16 338.812 103.553C338.812 103.945 338.499 104.27 338.103 104.27Z" fill="#98C8DB"/>
<path d="M342.601 104.27C342.206 104.27 341.879 103.945 341.879 103.553C341.879 103.16 342.206 102.849 342.587 102.849C342.982 102.849 343.31 103.16 343.31 103.553C343.31 103.945 342.982 104.27 342.587 104.27H342.601Z" fill="#98C8DB"/>
<path d="M347.085 104.27C346.69 104.27 346.376 103.945 346.376 103.553C346.376 103.16 346.69 102.849 347.085 102.849C347.48 102.849 347.794 103.16 347.794 103.553C347.794 103.945 347.48 104.27 347.085 104.27Z" fill="#98C8DB"/>
<path d="M315.643 104.27C315.248 104.27 314.935 103.945 314.935 103.553C314.935 103.16 315.248 102.849 315.643 102.849C316.038 102.849 316.366 103.16 316.366 103.553C316.366 103.945 316.038 104.27 315.643 104.27Z" fill="#98C8DB"/>
<path d="M322.376 106.585C321.994 106.585 321.667 106.273 321.667 105.881C321.667 105.488 321.994 105.177 322.376 105.177C322.771 105.177 323.098 105.488 323.098 105.881C323.098 106.273 322.771 106.585 322.376 106.585Z" fill="#98C8DB"/>
<path d="M326.873 106.585C326.478 106.585 326.165 106.273 326.165 105.881C326.165 105.488 326.478 105.177 326.873 105.177C327.269 105.177 327.582 105.488 327.582 105.881C327.582 106.273 327.269 106.585 326.873 106.585Z" fill="#98C8DB"/>
<path d="M331.371 106.585C330.975 106.585 330.648 106.273 330.648 105.881C330.648 105.488 330.975 105.177 331.371 105.177C331.766 105.177 332.079 105.488 332.079 105.881C332.079 106.273 331.766 106.585 331.371 106.585Z" fill="#98C8DB"/>
<path d="M335.855 106.585C335.459 106.585 335.146 106.273 335.146 105.881C335.146 105.488 335.459 105.177 335.855 105.177C336.25 105.177 336.577 105.488 336.577 105.881C336.577 106.273 336.25 106.585 335.855 106.585Z" fill="#98C8DB"/>
<path d="M340.352 106.585C339.957 106.585 339.63 106.273 339.63 105.881C339.63 105.488 339.957 105.177 340.352 105.177C340.748 105.177 341.061 105.488 341.061 105.881C341.061 106.273 340.748 106.585 340.352 106.585Z" fill="#98C8DB"/>
<path d="M344.836 106.585C344.441 106.585 344.127 106.273 344.127 105.881C344.127 105.488 344.441 105.177 344.836 105.177C345.231 105.177 345.558 105.488 345.558 105.881C345.558 106.273 345.231 106.585 344.836 106.585Z" fill="#98C8DB"/>
<path d="M349.334 106.585C348.938 106.585 348.625 106.273 348.625 105.881C348.625 105.488 348.938 105.177 349.334 105.177C349.729 105.177 350.042 105.488 350.042 105.881C350.042 106.273 349.729 106.585 349.334 106.585Z" fill="#98C8DB"/>
<path d="M317.892 106.585C317.497 106.585 317.183 106.273 317.183 105.881C317.183 105.488 317.497 105.177 317.892 105.177C318.287 105.177 318.601 105.488 318.601 105.881C318.601 106.273 318.287 106.585 317.892 106.585Z" fill="#98C8DB"/>
<path d="M320.141 108.913C319.746 108.913 319.418 108.602 319.418 108.209C319.418 107.817 319.746 107.505 320.141 107.505C320.536 107.505 320.849 107.817 320.849 108.209C320.849 108.602 320.536 108.913 320.141 108.913Z" fill="#98C8DB"/>
<path d="M324.625 108.913C324.229 108.913 323.916 108.602 323.916 108.209C323.916 107.817 324.229 107.505 324.625 107.505C325.02 107.505 325.347 107.817 325.347 108.209C325.347 108.602 325.02 108.913 324.625 108.913Z" fill="#98C8DB"/>
<path d="M329.122 108.913C328.727 108.913 328.4 108.602 328.4 108.209C328.4 107.817 328.727 107.505 329.122 107.505C329.517 107.505 329.831 107.817 329.831 108.209C329.831 108.602 329.517 108.913 329.122 108.913Z" fill="#98C8DB"/>
<path d="M333.606 108.913C333.211 108.913 332.897 108.602 332.897 108.209C332.897 107.817 333.211 107.505 333.606 107.505C334.001 107.505 334.328 107.817 334.328 108.209C334.328 108.602 334.001 108.913 333.606 108.913Z" fill="#98C8DB"/>
<path d="M338.103 108.913C337.708 108.913 337.395 108.602 337.395 108.209C337.395 107.817 337.708 107.505 338.103 107.505C338.499 107.505 338.812 107.817 338.812 108.209C338.812 108.602 338.499 108.913 338.103 108.913Z" fill="#98C8DB"/>
<path d="M342.601 108.913C342.206 108.913 341.879 108.602 341.879 108.209C341.879 107.817 342.206 107.505 342.587 107.505C342.982 107.505 343.31 107.817 343.31 108.209C343.31 108.602 342.982 108.913 342.587 108.913H342.601Z" fill="#98C8DB"/>
<path d="M347.085 108.913C346.69 108.913 346.376 108.602 346.376 108.209C346.376 107.817 346.69 107.505 347.085 107.505C347.48 107.505 347.794 107.817 347.794 108.209C347.794 108.602 347.48 108.913 347.085 108.913Z" fill="#98C8DB"/>
<path d="M315.643 108.913C315.248 108.913 314.935 108.602 314.935 108.209C314.935 107.817 315.248 107.505 315.643 107.505C316.038 107.505 316.366 107.817 316.366 108.209C316.366 108.602 316.038 108.913 315.643 108.913Z" fill="#98C8DB"/>
<path d="M351.678 104.27C351.282 104.27 350.955 103.945 350.955 103.553C350.955 103.16 351.282 102.849 351.678 102.849C352.073 102.849 352.386 103.16 352.386 103.553C352.386 103.945 352.073 104.27 351.678 104.27Z" fill="#98C8DB"/>
<path d="M351.678 108.913C351.282 108.913 350.955 108.602 350.955 108.209C350.955 107.817 351.282 107.505 351.678 107.505C352.073 107.505 352.386 107.817 352.386 108.209C352.386 108.602 352.073 108.913 351.678 108.913Z" fill="#98C8DB"/>
<path d="M358.479 111.363C358.083 111.363 357.756 111.038 357.756 110.646C357.756 110.253 358.083 109.942 358.465 109.942C358.86 109.942 359.187 110.253 359.187 110.646C359.187 111.038 358.86 111.363 358.465 111.363H358.479Z" fill="#98C8DB"/>
<path d="M362.962 111.363C362.567 111.363 362.254 111.038 362.254 110.646C362.254 110.253 362.567 109.942 362.962 109.942C363.358 109.942 363.671 110.253 363.671 110.646C363.671 111.038 363.358 111.363 362.962 111.363Z" fill="#98C8DB"/>
<path d="M367.46 111.363C367.065 111.363 366.737 111.038 366.737 110.646C366.737 110.253 367.065 109.942 367.46 109.942C367.855 109.942 368.169 110.253 368.169 110.646C368.169 111.038 367.855 111.363 367.46 111.363Z" fill="#98C8DB"/>
<path d="M371.944 111.363C371.548 111.363 371.235 111.038 371.235 110.646C371.235 110.253 371.548 109.942 371.944 109.942C372.339 109.942 372.666 110.253 372.666 110.646C372.666 111.038 372.339 111.363 371.944 111.363Z" fill="#98C8DB"/>
<path d="M376.441 111.363C376.046 111.363 375.719 111.038 375.719 110.646C375.719 110.253 376.046 109.942 376.441 109.942C376.836 109.942 377.15 110.253 377.15 110.646C377.15 111.038 376.836 111.363 376.441 111.363Z" fill="#98C8DB"/>
<path d="M353.981 111.363C353.586 111.363 353.272 111.038 353.272 110.646C353.272 110.253 353.586 109.942 353.981 109.942C354.376 109.942 354.69 110.253 354.69 110.646C354.69 111.038 354.376 111.363 353.981 111.363Z" fill="#98C8DB"/>
<path d="M356.23 113.678C355.835 113.678 355.507 113.366 355.507 112.974C355.507 112.581 355.835 112.27 356.23 112.27C356.625 112.27 356.938 112.581 356.938 112.974C356.938 113.366 356.625 113.678 356.23 113.678Z" fill="#98C8DB"/>
<path d="M360.714 113.678C360.318 113.678 360.005 113.366 360.005 112.974C360.005 112.581 360.318 112.27 360.714 112.27C361.109 112.27 361.436 112.581 361.436 112.974C361.436 113.366 361.109 113.678 360.714 113.678Z" fill="#98C8DB"/>
<path d="M365.211 113.678C364.816 113.678 364.502 113.366 364.502 112.974C364.502 112.581 364.816 112.27 365.211 112.27C365.606 112.27 365.92 112.581 365.92 112.974C365.92 113.366 365.606 113.678 365.211 113.678Z" fill="#98C8DB"/>
<path d="M369.695 113.678C369.3 113.678 368.986 113.366 368.986 112.974C368.986 112.581 369.3 112.27 369.695 112.27C370.09 112.27 370.417 112.581 370.417 112.974C370.417 113.366 370.09 113.678 369.695 113.678Z" fill="#98C8DB"/>
<path d="M374.192 113.678C373.797 113.678 373.484 113.366 373.484 112.974C373.484 112.581 373.797 112.27 374.192 112.27C374.587 112.27 374.901 112.581 374.901 112.974C374.901 113.366 374.587 113.678 374.192 113.678Z" fill="#98C8DB"/>
<path d="M378.69 113.678C378.295 113.678 377.968 113.366 377.968 112.974C377.968 112.581 378.295 112.27 378.69 112.27C379.071 112.27 379.399 112.581 379.399 112.974C379.399 113.366 379.071 113.678 378.69 113.678Z" fill="#98C8DB"/>
<path d="M358.479 116.006C358.083 116.006 357.756 115.695 357.756 115.302C357.756 114.91 358.083 114.585 358.465 114.585C358.86 114.585 359.187 114.91 359.187 115.302C359.187 115.695 358.86 116.006 358.465 116.006H358.479Z" fill="#98C8DB"/>
<path d="M362.962 116.006C362.567 116.006 362.254 115.695 362.254 115.302C362.254 114.91 362.567 114.585 362.962 114.585C363.358 114.585 363.671 114.91 363.671 115.302C363.671 115.695 363.358 116.006 362.962 116.006Z" fill="#98C8DB"/>
<path d="M367.46 116.006C367.065 116.006 366.737 115.695 366.737 115.302C366.737 114.91 367.065 114.585 367.46 114.585C367.855 114.585 368.169 114.91 368.169 115.302C368.169 115.695 367.855 116.006 367.46 116.006Z" fill="#98C8DB"/>
<path d="M371.944 116.006C371.548 116.006 371.235 115.695 371.235 115.302C371.235 114.91 371.548 114.585 371.944 114.585C372.339 114.585 372.666 114.91 372.666 115.302C372.666 115.695 372.339 116.006 371.944 116.006Z" fill="#98C8DB"/>
<path d="M376.441 116.006C376.046 116.006 375.719 115.695 375.719 115.302C375.719 114.91 376.046 114.585 376.441 114.585C376.836 114.585 377.15 114.91 377.15 115.302C377.15 115.695 376.836 116.006 376.441 116.006Z" fill="#98C8DB"/>
<path d="M353.981 116.006C353.586 116.006 353.272 115.695 353.272 115.302C353.272 114.91 353.586 114.585 353.981 114.585C354.376 114.585 354.69 114.91 354.69 115.302C354.69 115.695 354.376 116.006 353.981 116.006Z" fill="#98C8DB"/>
<path d="M356.23 118.334C355.835 118.334 355.507 118.009 355.507 117.617C355.507 117.238 355.835 116.913 356.23 116.913C356.625 116.913 356.938 117.238 356.938 117.63C356.938 118.01 356.625 118.334 356.23 118.334Z" fill="#98C8DB"/>
<path d="M360.714 118.334C360.318 118.334 360.005 118.009 360.005 117.617C360.005 117.238 360.318 116.913 360.714 116.913C361.109 116.913 361.436 117.238 361.436 117.63C361.436 118.01 361.109 118.334 360.714 118.334Z" fill="#98C8DB"/>
<path d="M365.211 118.334C364.816 118.334 364.502 118.009 364.502 117.617C364.502 117.238 364.816 116.913 365.211 116.913C365.606 116.913 365.92 117.238 365.92 117.63C365.92 118.01 365.606 118.334 365.211 118.334Z" fill="#98C8DB"/>
<path d="M369.695 118.334C369.3 118.334 368.986 118.009 368.986 117.617C368.986 117.238 369.3 116.913 369.695 116.913C370.09 116.913 370.417 117.238 370.417 117.63C370.417 118.01 370.09 118.334 369.695 118.334Z" fill="#98C8DB"/>
<path d="M374.192 118.334C373.797 118.334 373.484 118.009 373.484 117.617C373.484 117.238 373.797 116.913 374.192 116.913C374.587 116.913 374.901 117.238 374.901 117.63C374.901 118.01 374.587 118.334 374.192 118.334Z" fill="#98C8DB"/>
<path d="M378.69 118.334C378.295 118.334 377.968 118.009 377.968 117.617C377.968 117.238 378.295 116.913 378.69 116.913C379.071 116.913 379.399 117.238 379.399 117.63C379.399 118.01 379.071 118.334 378.69 118.334Z" fill="#98C8DB"/>
<path d="M356.23 104.27C355.835 104.27 355.507 103.945 355.507 103.553C355.507 103.16 355.835 102.849 356.23 102.849C356.625 102.849 356.938 103.16 356.938 103.553C356.938 103.945 356.625 104.27 356.23 104.27Z" fill="#98C8DB"/>
<path d="M360.714 104.27C360.318 104.27 360.005 103.945 360.005 103.553C360.005 103.16 360.318 102.849 360.714 102.849C361.109 102.849 361.436 103.16 361.436 103.553C361.436 103.945 361.109 104.27 360.714 104.27Z" fill="#98C8DB"/>
<path d="M365.211 104.27C364.816 104.27 364.502 103.945 364.502 103.553C364.502 103.16 364.816 102.849 365.211 102.849C365.606 102.849 365.92 103.16 365.92 103.553C365.92 103.945 365.606 104.27 365.211 104.27Z" fill="#98C8DB"/>
<path d="M369.695 104.27C369.3 104.27 368.986 103.945 368.986 103.553C368.986 103.16 369.3 102.849 369.695 102.849C370.09 102.849 370.417 103.16 370.417 103.553C370.417 103.945 370.09 104.27 369.695 104.27Z" fill="#98C8DB"/>
<path d="M374.192 104.27C373.797 104.27 373.484 103.945 373.484 103.553C373.484 103.16 373.797 102.849 374.192 102.849C374.587 102.849 374.901 103.16 374.901 103.553C374.901 103.945 374.587 104.27 374.192 104.27Z" fill="#98C8DB"/>
<path d="M378.69 104.27C378.295 104.27 377.968 103.945 377.968 103.553C377.968 103.16 378.295 102.849 378.69 102.849C379.071 102.849 379.399 103.16 379.399 103.553C379.399 103.945 379.071 104.27 378.69 104.27Z" fill="#98C8DB"/>
<path d="M358.479 106.585C358.083 106.585 357.756 106.273 357.756 105.881C357.756 105.488 358.083 105.177 358.465 105.177C358.86 105.177 359.187 105.488 359.187 105.881C359.187 106.273 358.86 106.585 358.465 106.585H358.479Z" fill="#98C8DB"/>
<path d="M362.962 106.585C362.567 106.585 362.254 106.273 362.254 105.881C362.254 105.488 362.567 105.177 362.962 105.177C363.358 105.177 363.671 105.488 363.671 105.881C363.671 106.273 363.358 106.585 362.962 106.585Z" fill="#98C8DB"/>
<path d="M367.46 106.585C367.065 106.585 366.737 106.273 366.737 105.881C366.737 105.488 367.065 105.177 367.46 105.177C367.855 105.177 368.169 105.488 368.169 105.881C368.169 106.273 367.855 106.585 367.46 106.585Z" fill="#98C8DB"/>
<path d="M371.944 106.585C371.548 106.585 371.235 106.273 371.235 105.881C371.235 105.488 371.548 105.177 371.944 105.177C372.339 105.177 372.666 105.488 372.666 105.881C372.666 106.273 372.339 106.585 371.944 106.585Z" fill="#98C8DB"/>
<path d="M376.441 106.585C376.046 106.585 375.719 106.273 375.719 105.881C375.719 105.488 376.046 105.177 376.441 105.177C376.836 105.177 377.15 105.488 377.15 105.881C377.15 106.273 376.836 106.585 376.441 106.585Z" fill="#98C8DB"/>
<path d="M353.981 106.585C353.586 106.585 353.272 106.273 353.272 105.881C353.272 105.488 353.586 105.177 353.981 105.177C354.376 105.177 354.69 105.488 354.69 105.881C354.69 106.273 354.376 106.585 353.981 106.585Z" fill="#98C8DB"/>
<path d="M356.23 108.913C355.835 108.913 355.507 108.602 355.507 108.209C355.507 107.817 355.835 107.505 356.23 107.505C356.625 107.505 356.938 107.817 356.938 108.209C356.938 108.602 356.625 108.913 356.23 108.913Z" fill="#98C8DB"/>
<path d="M360.714 108.913C360.318 108.913 360.005 108.602 360.005 108.209C360.005 107.817 360.318 107.505 360.714 107.505C361.109 107.505 361.436 107.817 361.436 108.209C361.436 108.602 361.109 108.913 360.714 108.913Z" fill="#98C8DB"/>
<path d="M365.211 108.913C364.816 108.913 364.502 108.602 364.502 108.209C364.502 107.817 364.816 107.505 365.211 107.505C365.606 107.505 365.92 107.817 365.92 108.209C365.92 108.602 365.606 108.913 365.211 108.913Z" fill="#98C8DB"/>
<path d="M369.695 108.913C369.3 108.913 368.986 108.602 368.986 108.209C368.986 107.817 369.3 107.505 369.695 107.505C370.09 107.505 370.417 107.817 370.417 108.209C370.417 108.602 370.09 108.913 369.695 108.913Z" fill="#98C8DB"/>
<path d="M374.192 108.913C373.797 108.913 373.484 108.602 373.484 108.209C373.484 107.817 373.797 107.505 374.192 107.505C374.587 107.505 374.901 107.817 374.901 108.209C374.901 108.602 374.587 108.913 374.192 108.913Z" fill="#98C8DB"/>
<path d="M378.69 108.913C378.295 108.913 377.968 108.602 377.968 108.209C377.968 107.817 378.295 107.505 378.69 107.505C379.071 107.505 379.399 107.817 379.399 108.209C379.399 108.602 379.071 108.913 378.69 108.913Z" fill="#98C8DB"/>
<path fill-rule="evenodd" clip-rule="evenodd" d="M350.887 144.609C350.887 143.011 351.528 141.482 352.659 140.345C353.804 139.221 355.344 138.585 356.952 138.585C358.56 138.585 360.1 139.221 361.231 140.345C362.376 141.482 363.017 143.011 363.017 144.609C363.017 147.925 356.952 158.822 356.952 158.822C356.952 158.822 350.887 147.925 350.887 144.609ZM355.235 145.407C355.33 145.624 355.467 145.827 355.644 146.003C355.807 146.179 356.012 146.314 356.243 146.409C356.475 146.504 356.707 146.544 356.952 146.544C357.715 146.544 358.397 146.098 358.683 145.407C358.969 144.703 358.806 143.905 358.274 143.377C357.743 142.849 356.938 142.7 356.243 142.984C355.548 143.269 355.085 143.945 355.085 144.69C355.085 144.934 355.139 145.177 355.235 145.407Z" fill="#6B6ABF"/>
<path d="M382.424 185.733H362.935V175.079H382.424V185.733Z" fill="#BDDCE8"/>
<path d="M352.373 165.279H371.862L382.438 175.079H362.935L352.373 165.279Z" fill="#98C8DB"/>
<path d="M341.783 175.079L352.359 165.279L362.935 175.079V185.733L373.497 195.533H341.783V175.079Z" fill="white"/>
<path d="M362.935 185.733H382.438L393 195.533H373.497L362.935 185.733Z" fill="#98C8DB"/>
<path d="M354.363 175.797H352.591V174.051H354.363V175.797Z" fill="#F3B304"/>
<path d="M351.759 175.797H349.988V174.051H351.759V175.797Z" fill="#F3B304"/>
<path d="M354.363 178.287H352.591V176.541H354.363V178.287Z" fill="#F3B304"/>
<path d="M351.759 178.287H349.988V176.541H351.759V178.287Z" fill="#F3B304"/>
<path d="M354.363 185.624H352.591V183.878H354.363V185.624Z" fill="#98C8DB"/>
<path d="M351.759 185.624H349.988V183.878H351.759V185.624Z" fill="#98C8DB"/>
<path d="M354.363 188.115H352.591V186.369H354.363V188.115Z" fill="#98C8DB"/>
<path d="M351.759 188.115H349.988V186.369H351.759V188.115Z" fill="#98C8DB"/>
<path d="M187.07 23.9309L172.119 28.7634V39.4031H156.419V28.7634L171.383 23.9309H187.07Z" fill="#98C8DB"/>
<path d="M172.119 39.4031V28.7634L186.947 23.9309L201.898 28.7634V39.4031H172.119Z" fill="white"/>
<path d="M176.862 30.1441H197.264C197.328 30.1441 197.387 30.1532 197.441 30.1712C197.496 30.1983 197.546 30.2344 197.591 30.2795C197.637 30.3246 197.673 30.3743 197.7 30.4284C197.718 30.4826 197.727 30.5412 197.727 30.6044V39.4031H176.385V30.6044C176.394 30.5412 176.408 30.4826 176.426 30.4284C176.453 30.3743 176.489 30.3246 176.535 30.2795C176.58 30.2344 176.63 30.1983 176.685 30.1712C176.739 30.1532 176.798 30.1441 176.862 30.1441Z" fill="#98C8DB"/>
<path d="M176.398 31.8633H197.741" stroke="white" stroke-width="3"/>
<path d="M176.398 33.8531H197.741" stroke="white" stroke-width="3"/>
<path d="M176.398 35.843H197.741" stroke="white" stroke-width="3"/>
<path d="M176.398 37.8329H197.741" stroke="white" stroke-width="3"/>
<path fill-rule="evenodd" clip-rule="evenodd" d="M188.95 0.932418C189.632 1.21668 190.259 1.62278 190.777 2.1507C191.308 2.66509 191.717 3.27423 192.003 3.95105C192.276 4.62788 192.426 5.35885 192.426 6.08982C192.426 9.17614 186.811 19.2608 186.811 19.2608C186.811 19.2608 181.196 9.17614 181.196 6.08982C181.196 5.35885 181.346 4.62788 181.618 3.95105C181.904 3.27423 182.313 2.66509 182.845 2.1507C183.363 1.63632 183.976 1.21668 184.657 0.945954C185.339 0.661688 186.075 0.512787 186.811 0.512787C187.547 0.512787 188.269 0.661688 188.95 0.932418ZM187.465 7.75481C187.669 7.67359 187.86 7.55176 188.024 7.38932C188.187 7.22688 188.31 7.03737 188.405 6.83433C188.487 6.61774 188.528 6.40116 188.528 6.17104C188.528 5.48068 188.105 4.858 187.465 4.58727C186.824 4.31654 186.075 4.46544 185.584 4.95275C185.093 5.4536 184.944 6.18457 185.203 6.83433C185.475 7.47054 186.102 7.89017 186.811 7.89017C187.029 7.89017 187.26 7.84956 187.465 7.75481Z" fill="#6B6ABF"/>
<path d="M142.954 33.4877H147.233V39.4031H142.954V33.4877Z" fill="#A74602"/>
<path d="M147.233 33.4877H156.119V39.4031H147.233V33.4877Z" fill="#F3B304"/>
<path d="M156.119 33.4877H158.736V39.4031H156.119V33.4877Z" fill="#A74602"/>
<path d="M158.736 33.4877H167.553V39.4031H158.736V33.4877Z" fill="#F3B304"/>
<path d="M150.885 28.8447H154.701V33.4877H150.885V28.8447Z" fill="#A74602"/>
<path d="M154.701 28.8447H162.538V33.4877H154.701V28.8447Z" fill="#F3B304"/>
<path opacity="0.5" d="M294.287 120.487C289.122 120.487 284.951 116.344 284.951 111.214C284.951 106.084 289.122 101.942 294.287 101.942C299.452 101.942 303.623 106.084 303.623 111.214C303.623 116.344 299.452 120.487 294.287 120.487Z" fill="white"/>
<path d="M294.287 120.487C289.122 120.487 284.951 116.344 284.951 111.214C284.951 106.084 289.122 101.942 294.287 101.942C299.452 101.942 303.623 106.084 303.623 111.214C303.623 116.344 299.452 120.487 294.287 120.487Z" stroke="#F3B304" stroke-width="5"/>
<path d="M185.979 40.9192V48.1612C185.979 49.2983 186.198 50.4218 186.634 51.4641C187.07 52.5064 187.71 53.454 188.514 54.2662C189.319 55.0648 190.286 55.701 191.336 56.1342C192.385 56.5674 193.516 56.784 194.647 56.784H252.747V56.7975C252.747 57.2983 252.842 57.7992 253.047 58.273C253.237 58.7467 253.524 59.1799 253.892 59.5319C254.259 59.8973 254.682 60.1816 255.159 60.3711C255.636 60.5742 256.14 60.6689 256.658 60.6689V86.7673C256.658 87.2546 256.713 87.7554 256.849 88.2427C256.972 88.7165 257.162 89.1903 257.421 89.6099C257.667 90.0431 257.98 90.4492 258.321 90.8011C258.675 91.1531 259.084 91.4644 259.507 91.7081L294.042 111.729" stroke="#F3B304" stroke-width="5" stroke-linejoin="round"/>
<path d="M288.099 114.612H299.002L293.933 104.432V111.309L288.099 114.612Z" fill="#F3B304"/>
<path d="M255.554 253.835H307.561L319.773 251.547H267.766L255.554 253.835Z" fill="#CEE4ED"/>
<path d="M172.541 253.835H224.549L236.76 251.547H184.766L172.541 253.835Z" fill="#CEE4ED"/>
<path d="M89.5425 253.835H141.536L153.747 251.547H101.754L89.5425 253.835Z" fill="#CEE4ED"/>
<path d="M6.52985 253.835H58.5235L70.7485 251.547H18.7412L6.52985 253.835Z" fill="#CEE4ED"/>
<path d="M278.301 251.168C269.892 251.168 263.091 244.413 263.091 236.061C263.091 227.709 269.892 220.954 278.301 220.954C286.71 220.954 293.497 227.709 293.497 236.061C293.497 244.413 286.71 251.168 278.301 251.168Z" fill="#59221D"/>
<path d="M304.413 190.443L278.9 171.303L252.556 109.901C251.82 108.182 250.825 106.571 249.626 105.136C248.413 103.688 247.009 102.443 245.428 101.4C243.861 100.371 242.144 99.5728 240.331 99.0313C238.532 98.5034 236.651 98.2191 234.77 98.2191H44.6495C43.0276 98.2191 41.4194 98.544 39.9066 99.1532C38.4075 99.7758 37.0446 100.683 35.8998 101.82C34.7414 102.97 33.8282 104.324 33.2149 105.813C32.588 107.316 32.2609 108.913 32.2609 110.524V229.212H308.788V199.161C308.788 198.321 308.693 197.482 308.502 196.656C308.297 195.844 308.011 195.046 307.643 194.288C307.262 193.53 306.798 192.826 306.253 192.176C305.708 191.526 305.095 190.944 304.413 190.443Z" fill="#6B6ABF" stroke="#592D29" stroke-width="5"/>
<path d="M308.788 199.161V229.212H233.039V199.161C233.039 198.308 232.944 197.469 232.753 196.656C232.549 195.831 232.263 195.046 231.881 194.288C231.513 193.53 231.05 192.826 230.504 192.176C229.959 191.526 229.346 190.944 228.665 190.43L203.152 171.289L176.807 109.901C176.071 108.182 175.076 106.571 173.877 105.136C172.664 103.688 171.26 102.443 169.679 101.4C168.112 100.371 166.395 99.5728 164.582 99.0313C162.783 98.5034 160.903 98.2191 159.022 98.2191H234.77C236.651 98.2191 238.532 98.5034 240.331 99.0313C242.143 99.5728 243.861 100.371 245.428 101.4C247.009 102.443 248.413 103.688 249.626 105.136C250.825 106.571 251.82 108.182 252.556 109.901L278.9 171.289L304.413 190.443C305.095 190.944 305.708 191.526 306.253 192.176C306.798 192.826 307.262 193.53 307.63 194.288C308.011 195.046 308.297 195.831 308.502 196.656C308.693 197.469 308.788 198.308 308.788 199.161Z" fill="white" stroke="#592D29" stroke-width="5"/>
<path d="M27.1638 229.212H313.122C313.476 229.212 313.817 229.279 314.144 229.415C314.471 229.55 314.757 229.74 315.003 229.983C315.262 230.24 315.453 230.525 315.589 230.85C315.725 231.174 315.793 231.513 315.793 231.865V236.061H24.5062V231.865C24.5062 231.513 24.5744 231.174 24.697 230.85C24.8333 230.525 25.0377 230.24 25.2831 229.983C25.5284 229.74 25.8282 229.55 26.1417 229.415C26.4688 229.279 26.8231 229.212 27.1638 229.212Z" fill="white" stroke="#592D29" stroke-width="5"/>
<path d="M254.723 211.98C254.723 211.316 255.268 210.761 255.936 210.761H288.359C289.04 210.761 289.585 211.316 289.585 211.98V219.574C289.585 220.251 289.04 220.792 288.359 220.792H255.936C255.268 220.792 254.723 220.251 254.723 219.574V211.98Z" fill="#98C8DB"/>
<path d="M256.372 210.789C256.372 210.112 256.931 209.57 257.599 209.57H290.021C290.689 209.57 291.248 210.112 291.248 210.789V218.369C291.248 219.046 290.689 219.587 290.021 219.587H257.599C256.931 219.587 256.372 219.046 256.372 218.369V210.789Z" stroke="#592D29" stroke-width="5"/>
<path d="M279.882 212.075C279.527 212.075 279.241 211.79 279.241 211.438C279.241 211.086 279.527 210.789 279.882 210.789C280.25 210.789 280.536 211.086 280.536 211.438C280.536 211.79 280.25 212.075 279.882 212.075Z" fill="#59221D"/>
<path d="M283.943 212.075C283.588 212.075 283.289 211.79 283.289 211.438C283.289 211.086 283.588 210.789 283.943 210.789C284.297 210.789 284.583 211.086 284.583 211.438C284.583 211.79 284.297 212.075 283.943 212.075Z" fill="#59221D"/>
<path d="M287.991 212.075C287.636 212.075 287.35 211.79 287.35 211.438C287.35 211.086 287.636 210.789 287.991 210.789C288.345 210.789 288.631 211.086 288.631 211.438C288.631 211.79 288.345 212.075 287.991 212.075Z" fill="#59221D"/>
<path d="M259.629 212.075C259.275 212.075 258.989 211.79 258.989 211.438C258.989 211.086 259.275 210.789 259.629 210.789C259.983 210.789 260.27 211.086 260.27 211.438C260.27 211.79 259.983 212.075 259.629 212.075Z" fill="#59221D"/>
<path d="M263.677 212.075C263.323 212.075 263.036 211.79 263.036 211.438C263.036 211.086 263.323 210.789 263.677 210.789C264.031 210.789 264.318 211.086 264.318 211.438C264.318 211.79 264.031 212.075 263.677 212.075Z" fill="#59221D"/>
<path d="M267.738 212.075C267.37 212.075 267.084 211.79 267.084 211.438C267.084 211.086 267.37 210.789 267.738 210.789C268.093 210.789 268.379 211.086 268.379 211.438C268.379 211.79 268.093 212.075 267.738 212.075Z" fill="#59221D"/>
<path d="M271.786 212.075C271.432 212.075 271.146 211.79 271.146 211.438C271.146 211.086 271.432 210.789 271.786 210.789C272.14 210.789 272.427 211.086 272.427 211.438C272.427 211.79 272.14 212.075 271.786 212.075Z" fill="#59221D"/>
<path d="M275.834 212.075C275.479 212.075 275.193 211.79 275.193 211.438C275.193 211.086 275.479 210.789 275.834 210.789C276.188 210.789 276.474 211.086 276.474 211.438C276.474 211.79 276.188 212.075 275.834 212.075Z" fill="#59221D"/>
<path d="M277.864 214.173C277.51 214.173 277.21 213.888 277.21 213.536C277.21 213.171 277.51 212.887 277.864 212.887C278.219 212.887 278.505 213.171 278.505 213.536C278.505 213.888 278.219 214.173 277.864 214.173Z" fill="#59221D"/>
<path d="M281.912 214.173C281.558 214.173 281.272 213.888 281.272 213.536C281.272 213.171 281.558 212.887 281.912 212.887C282.267 212.887 282.553 213.171 282.553 213.536C282.553 213.888 282.267 214.173 281.912 214.173Z" fill="#59221D"/>
<path d="M285.96 214.173C285.606 214.173 285.319 213.888 285.319 213.536C285.319 213.171 285.606 212.887 285.96 212.887C286.314 212.887 286.614 213.171 286.614 213.536C286.614 213.888 286.314 214.173 285.96 214.173Z" fill="#59221D"/>
<path d="M261.646 214.173C261.292 214.173 261.006 213.888 261.006 213.536C261.006 213.171 261.292 212.887 261.646 212.887C262.014 212.887 262.3 213.171 262.3 213.536C262.3 213.888 262.014 214.173 261.646 214.173Z" fill="#59221D"/>
<path d="M265.708 214.173C265.353 214.173 265.067 213.888 265.067 213.536C265.067 213.171 265.353 212.887 265.708 212.887C266.062 212.887 266.348 213.171 266.348 213.536C266.348 213.888 266.062 214.173 265.708 214.173Z" fill="#59221D"/>
<path d="M269.755 214.173C269.401 214.173 269.115 213.888 269.115 213.536C269.115 213.171 269.401 212.887 269.755 212.887C270.11 212.887 270.396 213.171 270.396 213.536C270.396 213.888 270.11 214.173 269.755 214.173Z" fill="#59221D"/>
<path d="M273.803 214.173C273.449 214.173 273.163 213.888 273.163 213.536C273.163 213.171 273.449 212.887 273.803 212.887C274.171 212.887 274.457 213.171 274.457 213.536C274.457 213.888 274.171 214.173 273.803 214.173Z" fill="#59221D"/>
<path d="M279.882 216.271C279.527 216.271 279.241 215.987 279.241 215.621C279.241 215.269 279.527 214.985 279.882 214.985C280.25 214.985 280.536 215.269 280.536 215.635C280.536 215.987 280.25 216.271 279.882 216.271Z" fill="#59221D"/>
<path d="M283.943 216.271C283.588 216.271 283.289 215.987 283.289 215.621C283.289 215.269 283.588 214.985 283.943 214.985C284.297 214.985 284.583 215.269 284.583 215.635C284.583 215.987 284.297 216.271 283.943 216.271Z" fill="#59221D"/>
<path d="M287.991 216.271C287.636 216.271 287.35 215.987 287.35 215.621C287.35 215.269 287.636 214.985 287.991 214.985C288.345 214.985 288.631 215.269 288.631 215.635C288.631 215.987 288.345 216.271 287.991 216.271Z" fill="#59221D"/>
<path d="M259.629 216.271C259.275 216.271 258.989 215.987 258.989 215.621C258.989 215.269 259.275 214.985 259.629 214.985C259.983 214.985 260.27 215.269 260.27 215.635C260.27 215.987 259.983 216.271 259.629 216.271Z" fill="#59221D"/>
<path d="M263.677 216.271C263.323 216.271 263.036 215.987 263.036 215.621C263.036 215.269 263.323 214.985 263.677 214.985C264.031 214.985 264.318 215.269 264.318 215.635C264.318 215.987 264.031 216.271 263.677 216.271Z" fill="#59221D"/>
<path d="M267.738 216.271C267.37 216.271 267.084 215.987 267.084 215.621C267.084 215.269 267.37 214.985 267.738 214.985C268.093 214.985 268.379 215.269 268.379 215.635C268.379 215.987 268.093 216.271 267.738 216.271Z" fill="#59221D"/>
<path d="M271.786 216.271C271.432 216.271 271.146 215.987 271.146 215.621C271.146 215.269 271.432 214.985 271.786 214.985C272.14 214.985 272.427 215.269 272.427 215.635C272.427 215.987 272.14 216.271 271.786 216.271Z" fill="#59221D"/>
<path d="M275.834 216.271C275.479 216.271 275.193 215.987 275.193 215.621C275.193 215.269 275.479 214.985 275.834 214.985C276.188 214.985 276.474 215.269 276.474 215.635C276.474 215.987 276.188 216.271 275.834 216.271Z" fill="#59221D"/>
<path d="M277.864 218.369C277.51 218.369 277.21 218.085 277.21 217.719C277.21 217.367 277.51 217.083 277.864 217.083C278.219 217.083 278.505 217.367 278.505 217.719C278.505 218.085 278.219 218.369 277.864 218.369Z" fill="#59221D"/>
<path d="M281.912 218.369C281.558 218.369 281.272 218.085 281.272 217.719C281.272 217.367 281.558 217.083 281.912 217.083C282.267 217.083 282.553 217.367 282.553 217.719C282.553 218.085 282.267 218.369 281.912 218.369Z" fill="#59221D"/>
<path d="M285.96 218.369C285.606 218.369 285.319 218.085 285.319 217.719C285.319 217.367 285.606 217.083 285.96 217.083C286.314 217.083 286.614 217.367 286.614 217.719C286.614 218.085 286.314 218.369 285.96 218.369Z" fill="#59221D"/>
<path d="M261.646 218.369C261.292 218.369 261.006 218.085 261.006 217.719C261.006 217.367 261.292 217.083 261.646 217.083C262.014 217.083 262.3 217.367 262.3 217.719C262.3 218.085 262.014 218.369 261.646 218.369Z" fill="#59221D"/>
<path d="M265.708 218.369C265.353 218.369 265.067 218.085 265.067 217.719C265.067 217.367 265.353 217.083 265.708 217.083C266.062 217.083 266.348 217.367 266.348 217.719C266.348 218.085 266.062 218.369 265.708 218.369Z" fill="#59221D"/>
<path d="M269.755 218.369C269.401 218.369 269.115 218.085 269.115 217.719C269.115 217.367 269.401 217.083 269.755 217.083C270.11 217.083 270.396 217.367 270.396 217.719C270.396 218.085 270.11 218.369 269.755 218.369Z" fill="#59221D"/>
<path d="M273.803 218.369C273.449 218.369 273.163 218.085 273.163 217.719C273.163 217.367 273.449 217.083 273.803 217.083C274.171 217.083 274.457 217.367 274.457 217.719C274.457 218.085 274.171 218.369 273.803 218.369Z" fill="#59221D"/>
<path d="M161.202 171.343V115.6C161.202 114.761 161.366 113.935 161.679 113.163C162.006 112.405 162.47 111.701 163.07 111.106C163.656 110.524 164.364 110.05 165.141 109.739C165.918 109.414 166.749 109.251 167.581 109.251H241.23C241.966 109.251 242.702 109.36 243.411 109.576C244.12 109.779 244.787 110.091 245.401 110.497C246.014 110.903 246.573 111.39 247.05 111.959C247.513 112.514 247.908 113.15 248.195 113.827L271.949 171.289L161.202 171.343Z" fill="white"/>
<path d="M164.364 171.343V117.698C164.364 116.859 164.528 116.033 164.855 115.262C165.168 114.504 165.645 113.8 166.231 113.204C166.831 112.622 167.54 112.148 168.303 111.837C169.08 111.512 169.911 111.35 170.756 111.35H244.406C245.142 111.35 245.878 111.458 246.586 111.674C247.282 111.877 247.963 112.189 248.576 112.595C249.19 113.001 249.748 113.488 250.212 114.057C250.689 114.612 251.07 115.248 251.357 115.925L275.125 171.289L164.364 171.343Z" fill="#98C8DB"/>
<path d="M209.08 132.142C208.249 132.142 207.417 132.304 206.641 132.615C205.877 132.94 205.169 133.4 204.583 133.996C203.983 134.578 203.52 135.282 203.193 136.04C202.879 136.812 202.716 137.637 202.716 138.463V171.343H196.951V138.463C196.951 137.637 197.114 136.812 197.428 136.04C197.755 135.282 198.218 134.578 198.818 133.996C199.404 133.4 200.112 132.94 200.889 132.615C201.652 132.304 202.484 132.142 203.329 132.142H209.08Z" fill="#59221D"/>
<path d="M238.982 138.463V171.343H202.715V138.463C202.715 137.637 202.879 136.812 203.192 136.04C203.52 135.282 203.983 134.578 204.583 133.996C205.169 133.4 205.877 132.94 206.641 132.615C207.417 132.304 208.249 132.142 209.08 132.142H232.617C233.448 132.142 234.28 132.304 235.056 132.615C235.82 132.94 236.528 133.4 237.114 133.996C237.714 134.578 238.177 135.282 238.505 136.04C238.818 136.812 238.982 137.637 238.982 138.463Z" fill="#A74602"/>
<path d="M275.152 171.343H285.864C286.341 171.343 286.805 171.248 287.241 171.073C287.677 170.897 288.072 170.626 288.399 170.301C288.74 169.963 288.999 169.57 289.19 169.137C289.367 168.704 289.462 168.243 289.462 167.77V155.668C289.462 155.397 289.408 155.127 289.299 154.869C289.19 154.612 289.04 154.382 288.836 154.193C288.645 153.989 288.413 153.841 288.154 153.732C287.895 153.624 287.623 153.57 287.35 153.57H283.929C283.657 153.57 283.384 153.624 283.125 153.732C282.866 153.841 282.634 153.989 282.444 154.193C282.253 154.382 282.089 154.612 281.994 154.869C281.885 155.127 281.83 155.397 281.83 155.668V167.783C281.83 168.243 281.735 168.704 281.558 169.137C281.381 169.556 281.122 169.949 280.795 170.274C280.467 170.599 280.072 170.869 279.65 171.045C279.214 171.221 278.764 171.316 278.287 171.33L275.152 171.343Z" fill="white"/>
<path d="M201.571 171.343H183.608C183.131 171.343 182.668 171.248 182.232 171.073C181.795 170.897 181.4 170.626 181.059 170.301C180.732 169.963 180.46 169.57 180.283 169.137C180.105 168.704 180.01 168.243 180.01 167.77V155.668C180.01 155.397 180.065 155.127 180.174 154.869C180.283 154.612 180.433 154.382 180.623 154.193C180.828 153.989 181.059 153.841 181.318 153.732C181.564 153.624 181.836 153.57 182.123 153.57H185.53C185.816 153.57 186.088 153.624 186.347 153.732C186.593 153.841 186.824 153.989 187.029 154.193C187.22 154.382 187.37 154.612 187.479 154.869C187.588 155.127 187.642 155.397 187.642 155.668V167.783C187.642 168.243 187.738 168.704 187.915 169.137C188.092 169.556 188.351 169.949 188.678 170.274C189.005 170.599 189.4 170.869 189.823 171.045C190.245 171.221 190.709 171.316 191.172 171.33L201.571 171.343Z" fill="#6B6ABF"/>
<path d="M273.639 171.343H284.365C284.842 171.343 285.306 171.248 285.742 171.073C286.178 170.897 286.573 170.626 286.9 170.301C287.241 169.963 287.5 169.57 287.691 169.137C287.868 168.704 287.963 168.243 287.963 167.77V155.668C287.963 155.397 287.909 155.127 287.8 154.869C287.691 154.612 287.541 154.382 287.336 154.193C287.146 153.989 286.914 153.841 286.655 153.732C286.41 153.624 286.123 153.57 285.851 153.57H282.43C282.157 153.57 281.885 153.624 281.626 153.732C281.367 153.841 281.135 153.989 280.944 154.193C280.74 154.382 280.59 154.612 280.481 154.869C280.372 155.127 280.318 155.397 280.318 155.668V167.783C280.318 168.243 280.236 168.704 280.059 169.137C279.881 169.556 279.622 169.949 279.295 170.274C278.968 170.599 278.573 170.869 278.137 171.045C277.714 171.221 277.251 171.316 276.788 171.33L273.639 171.343Z" fill="#6B6ABF"/>
<path d="M108.009 149.874V185.232H72.2067C71.5389 185.232 70.8711 185.11 70.2442 184.853C69.6309 184.595 69.0585 184.216 68.5815 183.743C68.1045 183.269 67.7365 182.714 67.4775 182.091C67.2186 181.469 67.0823 180.805 67.0823 180.142V149.874H108.009Z" fill="white"/>
<path d="M107.996 148.548H66.7825C66.7734 148.548 66.7643 148.548 66.7552 148.548C66.7461 148.548 66.7416 148.548 66.7416 148.548C66.7325 148.548 66.7234 148.548 66.7143 148.548C66.7052 148.557 66.7007 148.561 66.7007 148.561L57.9102 140.358H99.2189L107.996 148.548Z" fill="white"/>
<path d="M134.095 140.358L125.318 148.561C125.309 148.561 125.3 148.557 125.291 148.548C125.291 148.548 125.286 148.548 125.277 148.548C125.268 148.548 125.259 148.548 125.25 148.548C125.241 148.548 125.236 148.548 125.236 148.548H109.522L118.299 140.358H134.095Z" fill="white"/>
<path d="M124.923 149.874V180.128C124.923 180.792 124.786 181.455 124.527 182.078C124.269 182.7 123.887 183.269 123.41 183.743C122.933 184.216 122.374 184.595 121.747 184.853C121.12 185.11 120.452 185.232 119.771 185.232H109.495V149.874H124.923Z" fill="white"/>
<path d="M49.9783 236.345C49.9374 231.161 51.9681 226.18 55.6478 222.498C59.3139 218.829 64.3157 216.758 69.5219 216.758C74.7417 216.758 79.7434 218.829 83.4096 222.498C87.0893 226.18 89.12 231.161 89.0791 236.345H49.9783Z" fill="#59221D"/>
<path d="M69.5219 251.168C61.1266 251.168 54.3259 244.413 54.3259 236.061C54.3259 227.709 61.1266 220.954 69.5219 220.954C77.9308 220.954 84.7316 227.709 84.7316 236.061C84.7316 244.413 77.9308 251.168 69.5219 251.168Z" fill="#F5BBBB"/>
<path d="M69.5219 248.582C62.5576 248.582 56.929 242.978 56.929 236.061C56.929 229.144 62.5576 223.553 69.5219 223.553C76.4998 223.553 82.1285 229.144 82.1285 236.061C82.1285 242.978 76.4998 248.582 69.5219 248.582Z" stroke="white" stroke-width="5"/>
<path d="M69.5219 238.403C68.1318 238.403 67.0006 237.279 67.0006 235.899C67.0006 234.504 68.1318 233.394 69.5219 233.394C70.9257 233.394 72.0432 234.504 72.0432 235.899C72.0432 237.279 70.9257 238.403 69.5219 238.403Z" stroke="#592D29" stroke-width="5"/>
<path d="M181.196 236.345C181.155 231.161 183.199 226.18 186.865 222.498C190.532 218.829 195.533 216.758 200.753 216.758C205.959 216.758 210.961 218.829 214.627 222.498C218.307 226.18 220.338 231.161 220.297 236.345H181.196Z" fill="#59221D"/>
<path d="M200.971 251.168C192.562 251.168 185.761 244.413 185.761 236.061C185.761 227.709 192.562 220.954 200.971 220.954C209.38 220.954 216.181 227.709 216.181 236.061C216.181 244.413 209.38 251.168 200.971 251.168Z" fill="#F5BBBB"/>
<path d="M200.971 248.582C194.007 248.582 188.378 242.978 188.378 236.061C188.378 229.144 194.007 223.553 200.971 223.553C207.935 223.553 213.564 229.144 213.564 236.061C213.564 242.978 207.935 248.582 200.971 248.582Z" stroke="white" stroke-width="5"/>
<path d="M200.944 238.62C199.554 238.62 198.423 237.51 198.423 236.115C198.423 234.735 199.554 233.611 200.944 233.611C202.334 233.611 203.465 234.735 203.465 236.115C203.465 237.51 202.334 238.62 200.944 238.62Z" stroke="#592D29" stroke-width="5"/>
<path d="M300.692 208.244C297.353 208.244 294.655 205.563 294.655 202.247C294.655 198.931 297.353 196.25 300.692 196.25C304.032 196.25 306.73 198.931 306.73 202.247C306.73 205.563 304.032 208.244 300.692 208.244Z" fill="#6B6ABF"/>
<path d="M300.829 213.022C299.997 213.022 299.33 212.345 299.33 211.52C299.33 210.694 299.997 210.017 300.829 210.017C301.674 210.017 302.342 210.694 302.342 211.52C302.342 212.345 301.674 213.022 300.829 213.022Z" stroke="#592D29" stroke-width="5"/>
<path d="M242.757 208.244C239.418 208.244 236.719 205.563 236.719 202.247C236.719 198.931 239.418 196.25 242.757 196.25C246.096 196.25 248.794 198.931 248.794 202.247C248.794 205.563 246.096 208.244 242.757 208.244Z" fill="#6B6ABF"/>
<path d="M242.471 213.022C241.626 213.022 240.958 212.345 240.958 211.52C240.958 210.694 241.626 210.017 242.471 210.017C243.302 210.017 243.97 210.694 243.97 211.52C243.97 212.345 243.302 213.022 242.471 213.022Z" stroke="#592D29" stroke-width="5"/>
<path d="M265.612 171.343H206.15L208.167 161.746C208.549 159.946 209.23 158.226 210.198 156.656C211.165 155.086 212.392 153.692 213.823 152.528C215.254 151.377 216.889 150.47 218.62 149.847C220.365 149.238 222.205 148.927 224.058 148.927H247.69C249.544 148.927 251.384 149.238 253.128 149.847C254.873 150.47 256.495 151.377 257.926 152.528C259.37 153.692 260.597 155.086 261.551 156.656C262.518 158.226 263.2 159.946 263.582 161.746L265.612 171.343Z" fill="#F5BBBB"/>
<path d="M234.348 153.556V171.452L219.751 171.343L222.682 157.536C222.736 157.283 222.777 157.031 222.804 156.778C222.841 156.516 222.859 156.255 222.859 155.993C222.859 155.74 222.845 155.483 222.818 155.221C222.8 154.969 222.763 154.716 222.709 154.463C221.864 150.132 216.617 149.942 213.727 152.622L213.891 152.23C214.123 151.688 214.436 151.187 214.818 150.727C215.199 150.28 215.636 149.888 216.14 149.563C216.63 149.238 217.162 148.994 217.734 148.819C218.307 148.656 218.893 148.561 219.479 148.561H229.319C229.987 148.561 230.627 148.697 231.24 148.94C231.854 149.198 232.412 149.563 232.876 150.023C233.339 150.484 233.707 151.039 233.966 151.648C234.211 152.243 234.348 152.893 234.348 153.556Z" fill="#59221D"/>
<path d="M222.641 157.996H234.034" stroke="white" stroke-width="5" stroke-linecap="round" stroke-linejoin="round"/>
<path d="M221.114 165.279H234.034" stroke="white" stroke-width="5" stroke-linecap="round" stroke-linejoin="round"/>
<path d="M254.368 153.11V170.951H245.66V153.556C245.66 151.282 244.161 149.265 242.034 148.913L242.116 148.358H249.585C250.212 148.358 250.839 148.48 251.425 148.724C251.997 148.954 252.529 149.306 252.965 149.753C253.414 150.186 253.769 150.714 254.001 151.282C254.246 151.864 254.368 152.473 254.368 153.11Z" fill="#59221D"/>
<path d="M245.891 157.996H254.069" stroke="white" stroke-width="5" stroke-linecap="round" stroke-linejoin="round"/>
<path d="M230.109 148.859L234.443 142.768H241.994V148.859C241.994 148.859 239.622 151.296 230.109 148.859Z" fill="white" stroke="#59221D" stroke-width="3" stroke-linejoin="round"/>
<path d="M238.859 149.847C241.149 149.577 241.994 148.859 241.994 148.859V142.768H234.443V143.539C234.443 143.783 234.466 144.027 234.511 144.27C234.557 144.505 234.625 144.735 234.716 144.961C234.807 145.186 234.916 145.403 235.043 145.61C235.17 145.818 235.316 146.012 235.479 146.192L238.859 149.847Z" fill="#59221D"/>
<path d="M242.675 136.392V137.164L234.852 139.045V137.448C234.852 137.069 234.934 136.676 235.084 136.324C235.234 135.959 235.452 135.634 235.724 135.363C235.997 135.093 236.324 134.876 236.678 134.727C237.046 134.578 237.428 134.51 237.823 134.51H240.781C241.026 134.497 241.271 134.551 241.503 134.646C241.735 134.741 241.939 134.876 242.116 135.052C242.293 135.228 242.43 135.431 242.525 135.661C242.621 135.891 242.675 136.135 242.675 136.392Z" fill="#6B6ABF"/>
<path d="M235.002 139.045L246.818 136.135" stroke="#59221D" stroke-width="3" stroke-linecap="round" stroke-linejoin="round"/>
<path d="M242.675 137.164L243.288 142.862C243.329 143.201 243.302 143.539 243.193 143.851C243.084 144.176 242.92 144.473 242.689 144.717C242.471 144.974 242.184 145.177 241.885 145.313C241.571 145.448 241.244 145.516 240.903 145.516H237.946C237.728 145.516 237.519 145.489 237.319 145.434C237.11 145.38 236.91 145.299 236.719 145.191C236.538 145.082 236.369 144.952 236.215 144.798C236.061 144.654 235.933 144.487 235.833 144.297L235.016 142.89H233.666C233.176 142.876 232.699 142.673 232.358 142.321C232.017 141.969 231.827 141.495 231.827 141.008C231.827 140.521 232.017 140.047 232.358 139.695C232.699 139.343 233.176 139.14 233.666 139.126H233.994C234.103 139.126 234.207 139.144 234.307 139.181C234.407 139.208 234.502 139.253 234.593 139.316C234.684 139.379 234.766 139.451 234.839 139.532C234.911 139.614 234.966 139.704 235.002 139.803V139.045L242.675 137.164Z" fill="white" stroke="#59221D" stroke-width="3" stroke-linejoin="round"/>
<path d="M234.784 139.045L238 138.423L236.624 138.761C236.515 138.788 236.415 138.829 236.324 138.883C236.233 138.946 236.151 139.018 236.079 139.099C236.015 139.181 235.965 139.275 235.929 139.384C235.892 139.483 235.874 139.587 235.874 139.695V140.263C235.874 140.778 235.302 141.197 234.784 141.197V139.045Z" fill="#59221D"/>
<path d="M233.353 140.02C233.489 140.02 233.616 140.042 233.735 140.087C233.862 140.142 233.971 140.214 234.062 140.304C234.162 140.403 234.234 140.512 234.28 140.629C234.334 140.755 234.361 140.886 234.361 141.022" stroke="#59221D" stroke-width="3" stroke-linecap="round" stroke-linejoin="round"/>
<path d="M240.099 143.472C239.972 143.508 239.845 143.521 239.718 143.512C239.581 143.494 239.454 143.454 239.336 143.39C239.218 143.327 239.118 143.246 239.036 143.147C238.945 143.047 238.882 142.93 238.845 142.795" stroke="#59221D" stroke-width="3" stroke-linecap="round" stroke-linejoin="round"/>
<path d="M242.675 138.666H240.931C240.84 138.666 240.753 138.684 240.672 138.72C240.581 138.765 240.508 138.82 240.454 138.883C240.39 138.955 240.349 139.036 240.331 139.126C240.304 139.208 240.299 139.293 240.317 139.384C240.481 140.467 240.699 142.402 240.045 142.402" stroke="#59221D" stroke-width="3" stroke-linecap="round" stroke-linejoin="round"/>
<path d="M238.641 140.764C238.437 140.764 238.259 140.494 238.259 140.155C238.259 139.817 238.437 139.546 238.641 139.546C238.859 139.546 239.023 139.817 239.023 140.155C239.023 140.494 238.859 140.764 238.641 140.764Z" fill="#59221D"/>
<path d="M241.707 140.683C241.517 140.683 241.367 140.453 241.367 140.155C241.367 139.857 241.517 139.627 241.707 139.627C241.885 139.627 242.034 139.857 242.034 140.155C242.034 140.453 241.885 140.683 241.707 140.683Z" fill="#59221D"/>
<path d="M277.401 171.343L272.631 167.174C271.909 166.551 271.132 165.983 270.314 165.495C269.496 165.008 268.638 164.602 267.738 164.264C266.839 163.925 265.926 163.668 264.985 163.506C264.045 163.33 263.091 163.248 262.137 163.248H247.786C247.123 163.248 246.464 163.289 245.81 163.37C245.155 163.451 244.51 163.573 243.874 163.736C243.229 163.889 242.602 164.088 241.994 164.331C241.376 164.566 240.776 164.841 240.195 165.157L234.021 168.501C233.158 168.97 232.267 169.38 231.35 169.732C230.432 170.093 229.496 170.391 228.542 170.626C227.588 170.869 226.625 171.05 225.653 171.167C224.671 171.294 223.69 171.357 222.709 171.357L277.401 171.343Z" fill="#A74602"/>
<path d="M222.709 171.343C223.69 171.343 224.671 171.285 225.653 171.167C226.625 171.041 227.588 170.856 228.542 170.612C229.496 170.378 230.432 170.08 231.35 169.719C232.267 169.367 233.158 168.956 234.021 168.487L240.195 165.157C240.776 164.841 241.376 164.566 241.994 164.331C242.602 164.088 243.229 163.889 243.874 163.736C244.51 163.573 245.155 163.451 245.81 163.37C246.464 163.289 247.123 163.248 247.786 163.248H262.137C263.091 163.248 264.045 163.33 264.985 163.506C265.926 163.668 266.852 163.925 267.738 164.264C268.638 164.602 269.496 165.008 270.314 165.495C271.145 165.983 271.909 166.551 272.631 167.174L276.733 170.558" stroke="white" stroke-width="5" stroke-linecap="round" stroke-linejoin="round"/>
<path d="M203.152 171.33L203.206 206.511C202.761 206.493 202.307 206.484 201.843 206.484C191.199 206.484 181.891 211.993 176.848 220.196C176.694 220.449 176.508 220.679 176.289 220.887C176.071 221.094 175.835 221.27 175.581 221.415C175.317 221.559 175.045 221.667 174.763 221.74C174.472 221.812 174.177 221.848 173.877 221.848H160.889V115.316C160.889 114.531 161.053 113.745 161.352 113.015C161.666 112.284 162.102 111.607 162.674 111.052C163.233 110.497 163.901 110.05 164.637 109.752C165.373 109.441 166.163 109.292 166.967 109.292H252.379" stroke="#592D29" stroke-width="5"/>
<path d="M87.948 239.107C87.948 242.789 86.3125 246.132 83.6413 248.582" stroke="#592D29" stroke-width="5" stroke-linecap="round"/>
<path d="M219.629 238.836C219.629 242.518 217.993 245.862 215.322 248.312" stroke="#592D29" stroke-width="5" stroke-linecap="round"/>
<path d="M176.535 109.495C173.495 102.415 166.776 98.2191 159.022 98.2191" stroke="#592D29" stroke-width="5"/>
<path d="M233.04 229.212V199.161C233.04 198.321 232.944 197.482 232.753 196.656C232.549 195.844 232.263 195.046 231.881 194.288C231.513 193.543 231.05 192.826 230.505 192.176C229.959 191.54 229.346 190.944 228.665 190.443L203.152 171.303" stroke="#592D29" stroke-width="5"/>
<path d="M167.567 178.748C167.567 178.423 167.635 178.098 167.758 177.8C167.88 177.502 168.058 177.232 168.289 177.001C168.521 176.771 168.794 176.595 169.107 176.46C169.407 176.338 169.72 176.284 170.047 176.271L178.252 176.284C178.579 176.284 178.892 176.338 179.206 176.46C179.506 176.595 179.778 176.771 180.01 177.001C180.242 177.232 180.419 177.502 180.542 177.8C180.664 178.098 180.732 178.423 180.732 178.748" stroke="#592D29" stroke-width="5" stroke-linecap="round"/>
<path d="M299.807 186.978L304.236 190.281C305.708 191.377 304.931 193.719 303.077 193.719H238.614C237.728 193.719 236.828 193.638 235.956 193.502C235.084 193.354 234.211 193.151 233.366 192.866C232.521 192.582 231.704 192.244 230.913 191.824C230.123 191.418 229.373 190.944 228.665 190.416L224.058 186.978" stroke="#592D29" stroke-width="5"/>
<path d="M71.8388 117.373H15.2386" stroke="#592D29" stroke-width="5" stroke-linecap="round"/>
<path d="M58.0737 123.6H3" stroke="#592D29" stroke-width="5" stroke-linecap="round"/>
<path d="M59.0686 92.5067H214.777C215.458 92.5067 216.126 92.6286 216.753 92.8858C217.366 93.143 217.939 93.522 218.416 93.9958C218.893 94.4695 219.274 95.0245 219.52 95.6472C219.779 96.2699 219.915 96.9332 219.915 97.5965V98.2191H53.9305V97.5965C53.9305 96.9332 54.0668 96.2699 54.3258 95.6472C54.5847 95.0245 54.9663 94.4695 55.4433 93.9958C55.9203 93.522 56.4791 93.143 57.106 92.8858C57.7193 92.6286 58.3871 92.5067 59.0686 92.5067Z" stroke="#592D29" stroke-width="5"/>
<path d="M252.651 196.291H292.284" stroke="#592D29" stroke-width="5" stroke-linecap="round"/>
<path d="M203.083 171.343H185.121C184.644 171.343 184.18 171.248 183.744 171.073C183.308 170.897 182.913 170.626 182.572 170.301C182.245 169.963 181.973 169.57 181.795 169.137C181.618 168.704 181.523 168.243 181.523 167.77V155.668C181.523 155.397 181.577 155.127 181.686 154.869C181.782 154.612 181.945 154.382 182.136 154.193C182.34 153.989 182.572 153.841 182.817 153.732C183.076 153.624 183.349 153.57 183.635 153.57H187.042C187.329 153.57 187.601 153.624 187.847 153.732C188.105 153.841 188.337 153.989 188.542 154.193C188.732 154.382 188.882 154.612 188.991 154.869C189.1 155.127 189.155 155.397 189.155 155.668V167.783C189.155 168.243 189.237 168.704 189.414 169.137C189.605 169.556 189.864 169.949 190.191 170.274C190.518 170.599 190.899 170.869 191.335 171.045C191.758 171.221 192.221 171.316 192.685 171.33L203.083 171.343Z" stroke="#592D29" stroke-width="5"/>
<path d="M275.152 171.343H285.865C286.342 171.343 286.805 171.248 287.241 171.073C287.677 170.897 288.072 170.626 288.399 170.301C288.74 169.963 288.999 169.57 289.19 169.137C289.367 168.704 289.463 168.243 289.463 167.77V155.668C289.463 155.397 289.408 155.127 289.299 154.869C289.19 154.612 289.04 154.382 288.836 154.193C288.645 153.989 288.413 153.841 288.154 153.732C287.895 153.624 287.623 153.57 287.35 153.57H283.929C283.657 153.57 283.384 153.624 283.125 153.732C282.866 153.841 282.635 153.989 282.444 154.193C282.253 154.382 282.089 154.612 281.994 154.869C281.885 155.127 281.83 155.397 281.83 155.668V167.783C281.83 168.243 281.735 168.704 281.558 169.137C281.381 169.556 281.122 169.949 280.795 170.274C280.468 170.599 280.072 170.869 279.65 171.045C279.214 171.221 278.764 171.316 278.287 171.33L275.152 171.343Z" stroke="#592D29" stroke-width="5"/>
<path d="M203.083 171.343H278.968" stroke="#592D29" stroke-width="5"/>
<path d="M234.334 125.874L243.043 117.576" stroke="white" stroke-width="5" stroke-linecap="round" stroke-linejoin="round"/>
<path d="M230.109 129.895L232.195 127.918" stroke="white" stroke-width="5" stroke-linecap="round" stroke-linejoin="round"/>
<path d="M204.256 154.544L225.421 134.362" stroke="white" stroke-width="5" stroke-linecap="round" stroke-linejoin="round"/>
<path d="M228.746 123.559L232.194 120.284" stroke="white" stroke-width="5" stroke-linecap="round" stroke-linejoin="round"/>
<path d="M206.259 145.001L226.034 126.145" stroke="white" stroke-width="5" stroke-linecap="round" stroke-linejoin="round"/>
<path d="M203.52 171.14L202.797 171.452L177.012 111.35H177.857L203.52 171.14Z" fill="white"/>
</svg>
