<svg width="278" height="244" viewBox="0 0 278 244" fill="none" xmlns="http://www.w3.org/2000/svg">
<g clip-path="url(#clip0_112_3282)">
<path d="M178.535 220.319L177.853 210.872C173.385 208.647 168.439 207.543 163.445 207.654C170.471 213.062 169.908 223.871 174.774 231.269C176.309 233.564 178.344 235.486 180.726 236.893C183.109 238.299 185.779 239.153 188.539 239.392L194.386 242.742C195.055 238.34 194.757 233.845 193.514 229.568C192.271 225.291 190.111 221.333 187.184 217.968C185.523 216.096 183.632 214.439 181.555 213.038C180.277 216.692 178.535 220.319 178.535 220.319Z" fill="#F2F2F2"/>
<path d="M143.705 244H277.571C277.685 244 277.794 243.955 277.874 243.875C277.955 243.795 278 243.686 278 243.573C278 243.46 277.955 243.351 277.874 243.271C277.794 243.191 277.685 243.146 277.571 243.146H143.705C143.591 243.146 143.482 243.191 143.401 243.271C143.321 243.351 143.276 243.46 143.276 243.573C143.276 243.686 143.321 243.795 143.401 243.875C143.482 243.955 143.591 244 143.705 244Z" fill="#CCCCCC"/>
<path d="M58.4734 142.05V142.233H58.6013C58.555 142.174 58.5122 142.113 58.4734 142.05ZM59.4579 64.5422C50.5223 76.1145 45.6854 90.3072 45.7024 104.905C45.7044 107.128 45.8137 109.32 46.0305 111.48C46.0639 111.851 46.1027 112.222 46.153 112.588C47.3945 123.331 51.2703 133.604 57.4388 142.504C57.6778 142.853 57.9226 143.196 58.1675 143.54C60.823 147.247 63.8546 150.673 67.2144 153.762C94.2616 178.633 136.434 176.96 161.409 150.026C161.793 149.622 162.16 149.212 162.522 148.802C172.744 137.273 178.625 122.564 179.158 107.194C179.691 91.8228 174.842 76.7455 165.442 64.5422C165.158 64.1711 164.869 63.7999 164.569 63.4344C163.911 62.6091 163.228 61.8004 162.522 61.0083C162.16 60.5984 161.793 60.1885 161.409 59.7841C155.174 53.0492 147.603 47.675 139.176 44.0006C130.75 40.3263 121.649 38.4318 112.45 38.4367C111.81 38.4367 111.176 38.4478 110.542 38.4644C110.119 38.4755 109.696 38.4921 109.274 38.5143C99.8052 38.9619 90.5415 41.4163 82.1014 45.7137C73.6614 50.0111 66.2393 56.0525 60.3311 63.4344C60.0307 63.7999 59.7418 64.171 59.4579 64.5422ZM58.6013 142.233C58.555 142.174 58.5122 142.113 58.4734 142.05V142.233H58.6013Z" fill="white"/>
<path d="M58.0063 141.369L58.1953 140.986L72.3569 112.588V112.582L72.9077 111.48V111.474L96.3025 64.5422V64.5366L96.8533 63.4344L96.8587 63.4288L108.707 39.6498L109.274 38.5143C109.697 38.4921 110.119 38.4755 110.542 38.4644L109.98 39.5944L98.0994 63.4288V63.4344L97.5486 64.5366V64.5422L73.5416 112.699L73.5362 112.704L59.3746 141.125L58.8183 142.233L58.7292 142.415L58.1676 143.54C57.9226 143.196 57.6779 142.853 57.4389 142.504L58.0063 141.369Z" fill="#3F3D56"/>
<path d="M73.3026 111.48V112.588H46.153C46.1028 112.222 46.0639 111.851 46.0305 111.48H73.3026Z" fill="#3F3D56"/>
<path d="M115.495 120.121V119.014H142.644C142.694 119.379 142.733 119.75 142.767 120.121H115.495Z" fill="#3F3D56"/>
<path d="M138.203 116.262H139.315V143.298C138.948 143.348 138.576 143.387 138.203 143.42V116.262Z" fill="#3F3D56"/>
<path d="M165.442 64.5421C165.158 64.171 164.869 63.7999 164.569 63.4343H162.522V61.0082C162.16 60.5983 161.793 60.1885 161.409 59.7841V63.4343H60.3311C60.0307 63.7999 59.7418 64.171 59.4579 64.5421H161.409V150.026C161.793 149.622 162.16 149.212 162.522 148.802V64.5421H165.442Z" fill="#3F3D56"/>
<path d="M161.965 141.124H58.4721V142.232H161.965V141.124Z" fill="#3F3D56"/>
<path d="M58.4734 142.05V142.233H58.6013C58.555 142.174 58.5122 142.113 58.4734 142.05ZM59.4579 64.5422C50.5223 76.1145 45.6854 90.3072 45.7024 104.905C45.7044 107.128 45.8137 109.32 46.0305 111.48C46.0639 111.851 46.1027 112.222 46.153 112.588C47.3945 123.331 51.2703 133.604 57.4388 142.504C57.6778 142.853 57.9226 143.196 58.1675 143.54C60.823 147.247 63.8546 150.673 67.2144 153.762C94.2616 178.633 136.434 176.96 161.409 150.026C161.793 149.622 162.16 149.212 162.522 148.802C172.744 137.273 178.625 122.564 179.158 107.194C179.691 91.8228 174.842 76.7455 165.442 64.5422C165.158 64.1711 164.869 63.7999 164.569 63.4344C163.911 62.6091 163.228 61.8004 162.522 61.0083C162.16 60.5984 161.793 60.1885 161.409 59.7841C155.174 53.0492 147.603 47.675 139.176 44.0006C130.75 40.3263 121.649 38.4318 112.45 38.4367C111.81 38.4367 111.176 38.4478 110.542 38.4644C110.119 38.4755 109.696 38.4921 109.274 38.5143C99.8052 38.9619 90.5415 41.4163 82.1014 45.7137C73.6614 50.0111 66.2393 56.0525 60.3311 63.4344C60.0307 63.7999 59.7418 64.171 59.4579 64.5422ZM47.2708 112.588C47.2209 112.222 47.182 111.851 47.1429 111.48C45.4474 94.6563 50.3638 77.8328 60.8596 64.5421C61.1543 64.171 61.4493 63.7999 61.7551 63.4343C67.5037 56.4518 74.6445 50.7328 82.7261 46.6388C90.8076 42.5449 99.6542 40.1651 108.707 39.6497C109.129 39.6276 109.552 39.6054 109.98 39.5944C110.798 39.5611 111.621 39.5445 112.45 39.5445C121.7 39.5391 130.846 41.4862 139.285 45.2575C147.724 49.0288 155.265 54.5386 161.409 61.4237C161.793 61.8446 162.166 62.2656 162.522 62.6977C162.739 62.9414 162.944 63.1851 163.145 63.4343C163.451 63.7999 163.745 64.171 164.04 64.5421C173.393 76.3665 178.351 91.0479 178.074 106.097C177.797 121.146 172.303 135.637 162.522 147.112C162.166 147.545 161.793 147.965 161.409 148.386C158.023 152.176 154.204 155.559 150.03 158.467C120.367 179.141 79.4901 171.955 58.7292 142.415C58.6847 142.354 58.6402 142.294 58.6013 142.233C58.555 142.174 58.5122 142.113 58.4734 142.05C58.3121 141.823 58.1564 141.596 58.0062 141.369C52.1635 132.77 48.4816 122.899 47.2708 112.588ZM58.6013 142.233C58.555 142.174 58.5122 142.113 58.4734 142.05V142.233H58.6013Z" fill="#CCCCCC"/>
<path d="M189.324 176.297H122.731C121.917 176.296 121.136 175.973 120.56 175.4C119.985 174.827 119.661 174.049 119.66 173.239V140.927C119.661 140.116 119.985 139.338 120.56 138.765C121.136 138.192 121.917 137.869 122.731 137.868H189.324C190.138 137.869 190.918 138.192 191.494 138.765C192.07 139.338 192.394 140.116 192.395 140.927V173.239C192.394 174.049 192.07 174.827 191.494 175.4C190.918 175.973 190.138 176.296 189.324 176.297Z" fill="#CACACA"/>
<path d="M159.991 173.697C145.407 173.697 130.199 173.558 124.525 173.468C123.779 173.453 123.068 173.147 122.544 172.617C122.021 172.087 121.726 171.374 121.723 170.631V140.929C121.723 140.663 121.83 140.408 122.018 140.219C122.207 140.03 122.463 139.924 122.731 139.923H189.322C189.589 139.923 189.845 140.029 190.034 140.217C190.224 140.405 190.331 140.66 190.331 140.926V161.078C190.319 164.368 189.012 167.522 186.692 169.863C184.371 172.204 181.222 173.546 177.919 173.602C172.631 173.67 166.369 173.697 159.991 173.697Z" fill="#E4E4E4"/>
<path d="M182.449 158.491H128.265C127.914 158.49 127.571 158.382 127.284 158.18C126.997 157.979 126.779 157.694 126.661 157.364L120.528 140.231C120.437 139.976 120.408 139.702 120.445 139.433C120.482 139.164 120.583 138.907 120.74 138.685C120.897 138.463 121.105 138.282 121.347 138.157C121.589 138.032 121.858 137.966 122.13 137.966L189.86 137.872H189.863C190.145 137.872 190.422 137.941 190.67 138.074C190.918 138.207 191.129 138.4 191.285 138.634C191.44 138.868 191.534 139.137 191.559 139.417C191.584 139.696 191.539 139.978 191.428 140.236L184.014 157.463C183.883 157.768 183.665 158.028 183.386 158.211C183.108 158.394 182.782 158.491 182.449 158.491Z" fill="#CACACA"/>
<path d="M143.97 170.366H125.286C124.826 170.365 124.385 170.182 124.06 169.858C123.735 169.534 123.553 169.095 123.553 168.637C123.553 168.179 123.735 167.74 124.06 167.416C124.385 167.091 124.826 166.909 125.286 166.908H143.97C144.43 166.909 144.871 167.091 145.196 167.416C145.521 167.74 145.703 168.179 145.703 168.637C145.703 169.095 145.521 169.534 145.196 169.858C144.871 170.182 144.43 170.365 143.97 170.366Z" fill="#CACACA"/>
<path d="M155.926 162.716C158.27 162.716 160.169 160.824 160.169 158.491C160.169 156.158 158.27 154.266 155.926 154.266C153.583 154.266 151.683 156.158 151.683 158.491C151.683 160.824 153.583 162.716 155.926 162.716Z" fill="#3F3D56"/>
<path d="M21.448 8.73657C31.8732 1.42548 44.7879 -1.46209 57.3511 0.709081C69.9143 2.88026 81.0968 9.93233 88.4386 20.3139C103.727 41.9325 119.068 98.6218 108.239 131.462C75.9383 97.4867 26.315 93.9562 9.82196 75.4469C-7.80139 55.6692 -0.261415 23.9611 21.448 8.73657Z" fill="#6B6ABF"/>
<path d="M49.7842 57.6904C58.4439 57.6904 65.4639 50.6998 65.4639 42.0764C65.4639 33.4529 58.4439 26.4623 49.7842 26.4623C41.1246 26.4623 34.1046 33.4529 34.1046 42.0764C34.1046 50.6998 41.1246 57.6904 49.7842 57.6904Z" fill="white"/>
<path d="M121.494 148.467C127.166 148.467 131.764 143.888 131.764 138.24C131.764 132.592 127.166 128.013 121.494 128.013C115.822 128.013 111.224 132.592 111.224 138.24C111.224 143.888 115.822 148.467 121.494 148.467Z" fill="#6B6ABF"/>
<path opacity="0.2" d="M33.0088 38.4735C31.9706 40.2442 31.2928 42.2012 31.0141 44.2328C30.7353 46.2643 30.8612 48.3307 31.3844 50.3138C31.9076 52.2969 32.8179 54.158 34.0634 55.7908C35.3089 57.4236 36.8651 58.7961 38.6432 59.83C40.4214 60.8639 42.3866 61.5389 44.4267 61.8164C46.4668 62.094 48.5418 61.9687 50.5332 61.4477C52.5247 60.9267 54.3936 60.0202 56.0333 58.7799C57.6729 57.5396 59.0512 55.9899 60.0894 54.2192C57.2907 56.6642 53.7095 58.0375 49.9869 58.0934C46.2643 58.1493 42.6432 56.884 39.7717 54.5242C36.9003 52.1643 34.9659 48.8638 34.3148 45.2135C33.6638 41.5631 34.3385 37.8012 36.2183 34.6009C34.9457 35.7109 33.8618 37.0187 33.0088 38.4735Z" fill="#231F20"/>
<path opacity="0.2" d="M9.79247 75.5206C26.2855 94.0298 75.9088 97.5603 108.209 131.536C109.218 128.429 109.994 125.251 110.531 122.03C78.2465 91.1433 31.3858 87.2398 15.4505 69.3566C1.18822 53.3507 3.40838 29.5326 16.28 12.9597C-1.37322 29.2551 -6.35765 57.3962 9.79247 75.5206Z" fill="#231F20"/>
<path d="M214.798 140.917L208.14 138.897C205.241 142.377 202.838 152.459 202.838 152.459L193.724 167.206C193.237 167.436 192.819 167.791 192.512 168.233C192.206 168.676 192.022 169.191 191.979 169.727C191.936 170.263 192.036 170.8 192.268 171.286C192.5 171.771 192.856 172.187 193.301 172.492C193.746 172.796 194.264 172.979 194.802 173.021C195.34 173.063 195.88 172.963 196.367 172.732C196.854 172.5 197.271 172.144 197.577 171.701C197.882 171.258 198.065 170.742 198.106 170.206L211.899 153.532L214.798 140.917Z" fill="#FFB6B6"/>
<path d="M214.671 142.526L215.901 132.489L213.143 127.901C212.598 127.003 211.812 126.274 210.873 125.797C209.934 125.32 208.88 125.114 207.829 125.202C206.406 125.332 205.086 125.994 204.134 127.056C203.183 128.118 202.673 129.5 202.706 130.923C202.809 135.237 203.492 140.693 206.155 142.184L206.182 142.199L214.671 142.526Z" fill="#6B6ABF"/>
<path d="M233.481 233.226L229.488 235.145L220.154 220.721L226.047 217.889L233.481 233.226Z" fill="#FFB6B6"/>
<path d="M235.633 237.306L223.354 243.209L223.279 243.054C222.667 241.792 222.584 240.339 223.048 239.016C223.511 237.693 224.484 236.607 225.751 235.997L227.173 233.225L232.179 232.908L233.251 232.392L235.633 237.306Z" fill="#2F2E41"/>
<path d="M203.759 238.603L199.325 238.602L197.216 221.572L203.76 221.572L203.759 238.603Z" fill="#FFB6B6"/>
<path d="M203.915 243.209L190.281 243.208V243.037C190.281 241.635 190.84 240.291 191.835 239.3C192.83 238.309 194.18 237.752 195.588 237.752H195.588L198.079 235.87L202.725 237.752L203.916 237.752L203.915 243.209Z" fill="#2F2E41"/>
<path d="M199.365 159.617L194.284 194.508L195.667 199.099L193.852 202.35L196.517 226.823L195.435 229.194L198.457 231.05H204.606L204.933 205.199L206.452 201.403V199.312L209.544 183.548L210.257 208.088L211.244 209.984C214.922 218.292 219.875 221.012 223.377 227.222L229.527 223.905L229.398 221.432C230.633 220.809 227.543 218.988 227.246 217.641L226.708 215.23L223.121 207.831L222.984 205.225L223.966 187.501L223.504 163.634L215.438 157.492L199.365 159.617Z" fill="#2F2E41"/>
<path d="M207.348 117.298C211.76 117.298 215.337 113.736 215.337 109.342C215.337 104.948 211.76 101.386 207.348 101.386C202.936 101.386 199.359 104.948 199.359 109.342C199.359 113.736 202.936 117.298 207.348 117.298Z" fill="#FFB6B6"/>
<path d="M195.544 174.669L195.427 174.628L196.973 169.624C196.77 168.979 196.732 168.294 196.861 167.631C196.989 166.967 197.282 166.346 197.712 165.823C197.462 165.392 196.431 163.356 198.11 161.627C198.009 161.122 197.504 158.138 199.266 156.678C199.266 156.678 202.685 130.873 204.603 124.058C204.658 123.559 204.209 119.487 206.789 119.328C208.149 119.244 210.19 119.115 213.254 118.918C213.65 118.89 213.882 119.556 214.233 120.639C214.471 121.372 213.247 122.373 213.543 122.356L213.564 122.355L213.584 122.36C216.442 123.123 218.949 124.843 220.684 127.23C222.418 129.617 223.275 132.526 223.109 135.468L222.198 150.887C222.336 151.507 225.237 169.09 224.478 170.978C224.048 172.048 224.782 172.715 225.317 173.202C225.593 173.453 225.792 173.634 225.764 173.832C225.753 173.887 225.729 173.938 225.692 173.98C225.656 174.023 225.61 174.055 225.558 174.075C225.073 174.316 225.341 175.971 225.624 176.957L225.653 177.057L225.559 177.105C225.451 177.16 216.781 173.201 206.249 173.201C202.279 173.201 199.985 176.211 195.544 174.669Z" fill="#6B6ABF"/>
<path d="M213.679 114.233C213.596 114.191 213.523 114.131 213.465 114.059C213.406 113.986 213.364 113.902 213.34 113.813L213.226 113.351L213.576 113.714C213.764 113.56 213.907 113.359 213.991 113.132C214.076 112.905 214.099 112.659 214.058 112.421C214.017 112.182 213.913 111.958 213.758 111.772C213.602 111.586 213.4 111.444 213.172 111.36C213.018 111.309 212.859 111.271 212.699 111.246C212.531 111.219 212.366 111.18 212.204 111.127C211.826 110.964 211.5 110.702 211.261 110.368C211.023 110.033 210.88 109.641 210.85 109.232C210.798 108.511 210.878 107.786 211.087 107.094C207.562 107.633 203.967 107.525 200.48 106.776C199.943 106.663 199.429 106.462 198.958 106.18C198.097 105.672 197.381 104.954 196.875 104.093C196.809 103.977 196.781 103.843 196.796 103.71C196.812 103.577 196.869 103.453 196.961 103.355C197.024 103.286 197.101 103.232 197.187 103.194C197.272 103.157 197.365 103.137 197.458 103.136L197.331 102.792C197.291 102.685 197.28 102.569 197.3 102.456C197.32 102.343 197.37 102.237 197.444 102.15C197.518 102.062 197.614 101.996 197.723 101.957C197.831 101.919 197.948 101.91 198.061 101.931L198.513 102.015L198.469 101.716C198.453 101.604 198.466 101.49 198.508 101.386C198.549 101.281 198.617 101.188 198.706 101.118C198.794 101.047 198.899 101.001 199.011 100.983C199.122 100.965 199.237 100.977 199.343 101.016C199.44 101.053 199.543 101.068 199.647 101.06C199.75 101.053 199.851 101.023 199.941 100.973C200.032 100.923 200.111 100.854 200.172 100.771C200.234 100.688 200.277 100.593 200.297 100.492L200.453 99.7397L200.469 99.6999C201.234 98.4308 202.703 97.5082 204.501 97.1688C206.104 96.8663 207.74 97.019 209.324 97.1668C209.995 97.1803 210.654 97.3462 211.252 97.6518C211.522 97.8071 211.744 98.0341 211.892 98.3077C212.041 98.5812 212.11 98.8904 212.092 99.2008C213.651 98.7235 215.324 99.6743 216.151 100.873C217.134 102.297 217.293 104.085 217.321 105.483C217.389 108.788 216.705 111.492 215.289 113.52C215.087 113.864 214.78 114.136 214.413 114.296C214.319 114.327 214.221 114.343 214.122 114.343C213.968 114.343 213.816 114.306 213.679 114.233Z" fill="#2F2E41"/>
<path d="M213.967 145.558L208.103 141.824C204.368 144.396 199.322 153.457 199.322 153.457L186.55 165.207C186.018 165.298 185.519 165.527 185.104 165.87C184.689 166.214 184.372 166.661 184.186 167.165C183.999 167.67 183.949 168.214 184.041 168.744C184.133 169.274 184.364 169.77 184.709 170.183C185.055 170.596 185.504 170.911 186.011 171.096C186.518 171.281 187.065 171.33 187.596 171.238C188.128 171.146 188.626 170.916 189.041 170.571C189.455 170.226 189.77 169.779 189.956 169.274L207.756 156.925L213.967 145.558Z" fill="#FFB6B6"/>
<path d="M213.408 147.073L217.313 137.739L215.901 132.581C215.62 131.569 215.06 130.656 214.285 129.944C213.51 129.232 212.551 128.751 211.516 128.554C210.11 128.296 208.659 128.579 207.456 129.346C206.252 130.113 205.386 131.306 205.032 132.685C203.962 136.867 203.141 142.303 205.301 144.455L205.323 144.476L213.408 147.073Z" fill="#6B6ABF"/>
</g>
<defs>
<clipPath id="clip0_112_3282">
<rect width="278" height="244" fill="white"/>
</clipPath>
</defs>
</svg>
