<svg width="278" height="244" viewBox="0 0 278 244" fill="none" xmlns="http://www.w3.org/2000/svg">
<g clip-path="url(#clip0_112_3321)">
<path d="M13.4141 83.1477L0.00965583 75.5762C-0.171156 67.4755 1.62256 59.4529 5.23506 52.2052C8.32553 66.2722 24.5896 72.9648 32.0936 85.247C34.4048 89.0957 35.8227 93.4166 36.2423 97.8896C36.662 102.363 36.0725 106.873 34.5177 111.086L35.3993 121.993C28.4714 119.912 22.0757 116.35 16.6529 111.551C11.23 106.753 6.90897 100.832 3.98739 94.1976C2.38517 90.4594 1.25873 86.5337 0.634666 82.5132C6.8844 83.1802 13.4141 83.1477 13.4141 83.1477Z" fill="#F2F2F2"/>
<path d="M254.382 220.894L254.793 211.625C259.078 209.328 263.857 208.115 268.715 208.091C262.029 213.573 262.864 224.142 258.331 231.515C256.899 233.803 254.972 235.739 252.693 237.18C250.414 238.62 247.841 239.528 245.165 239.835L239.569 243.271C238.801 238.978 238.97 234.57 240.065 230.349C241.16 226.128 243.154 222.195 245.91 218.822C247.475 216.945 249.27 215.273 251.251 213.845C252.591 217.389 254.382 220.894 254.382 220.894Z" fill="#F2F2F2"/>
<path d="M239.964 238.501L234.897 238.501L232.486 218.901L239.965 218.902L239.964 238.501Z" fill="#FFB6B6"/>
<path d="M241.256 243.427L224.918 243.426V243.219C224.918 241.528 225.588 239.906 226.781 238.71C227.973 237.514 229.591 236.842 231.277 236.842L234.262 234.571L239.83 236.842L241.256 236.842L241.256 243.427Z" fill="#2F2E41"/>
<path d="M216.424 238.501L211.357 238.501L208.947 218.901L216.425 218.902L216.424 238.501Z" fill="#FFB6B6"/>
<path d="M217.716 243.427L201.379 243.426V243.219C201.379 241.528 202.049 239.906 203.241 238.71C204.434 237.514 206.051 236.842 207.738 236.842L210.722 234.571L216.29 236.842L217.716 236.842L217.716 243.427Z" fill="#2F2E41"/>
<path d="M214.231 131.35L247.188 132.176C253.447 135.585 253.542 142.965 251.491 151.726C251.491 151.726 252.184 156.933 250.799 158.322C249.414 159.711 248.722 159.711 249.414 162.141C250.107 164.571 246.449 168.54 246.893 168.986C247.337 169.431 248.376 171.861 248.376 171.861L244.914 191.649C244.914 191.649 242.491 226.018 241.798 226.713C241.106 227.407 240.414 226.713 241.106 228.448C241.798 230.184 242.491 229.49 241.798 230.184C241.185 230.847 240.607 231.543 240.068 232.267H231.698C231.698 232.267 231.067 228.796 231.067 228.448C231.067 228.101 230.375 226.018 230.375 225.671C230.375 225.324 230.987 224.71 230.987 224.71C231.198 224.005 231.341 223.28 231.413 222.547C231.413 221.852 233.49 195.121 233.49 195.121L229.336 160.405L219.297 194.427C219.297 194.427 219.297 224.282 218.605 224.977C217.913 225.671 217.913 225.324 218.259 226.713C218.605 228.101 219.99 227.754 218.951 228.796C217.913 229.837 217.566 228.101 217.913 229.837L218.259 231.573L207.874 231.722C207.874 231.722 206.489 228.796 207.181 227.754C207.874 226.713 207.832 226.997 206.987 225.293C206.143 223.588 205.797 223.241 206.143 222.894C206.489 222.547 206.489 220.7 206.489 220.7L208.22 187.483C208.22 187.483 208.566 152.42 208.566 151.379C208.592 150.843 208.494 150.308 208.278 149.817V148.403L209.604 143.394L214.231 131.35Z" fill="#2F2E41"/>
<path d="M234.029 62.6249C239.684 62.6249 244.268 58.0273 244.268 52.3557C244.268 46.6842 239.684 42.0865 234.029 42.0865C228.373 42.0865 223.789 46.6842 223.789 52.3557C223.789 58.0273 228.373 62.6249 234.029 62.6249Z" fill="#FFB6B6"/>
<path d="M228.909 69.4122C226.703 70.7274 225.383 73.144 224.625 75.6031C223.223 80.1559 222.379 84.863 222.111 89.6205L221.311 103.864L211.402 134.191C219.99 141.479 252.272 135.848 252.272 135.848C252.272 135.848 253.263 135.516 252.272 134.523C251.281 133.529 250.316 134.409 251.307 133.415C252.298 132.422 251.615 133.529 251.285 132.535C250.955 131.541 251.285 132.204 251.615 131.872C251.946 131.541 249.058 128.56 249.058 128.56L251.701 111.151L255.004 76.0374C251.04 71.0684 243.068 68.1393 243.068 68.1393L241.008 64.421L230.709 65.2473L228.909 69.4122Z" fill="#E6E6E6"/>
<path d="M227.504 46.329C227.9 46.3321 228.295 46.384 228.678 46.4835C229.434 46.6658 230.202 46.795 230.977 46.87C233.347 47.0937 235.575 48.1075 237.303 49.7497C239.032 51.3918 240.162 53.5675 240.513 55.9292C241.108 55.409 242.462 54.452 243.571 55.3414C243.588 55.3555 243.598 55.3628 243.637 55.3442C244.374 54.9936 245.683 50.6778 245.722 46.8779C245.743 44.861 245.426 42.2855 243.8 41.4699L243.714 41.427L243.692 41.3336C243.583 40.8799 242.369 40.1054 240.259 39.5027C236.424 38.4073 230.708 36.2735 227.489 39.4138C227.245 40.4724 226.453 42.738 225.652 42.9948C224.766 43.279 224 43.5243 223.88 44.6149C223.779 46.1668 223.786 47.7239 223.901 49.2748C224.202 48.3258 224.791 47.4952 225.587 46.8999C226.153 46.5178 226.822 46.3186 227.504 46.329Z" fill="#2F2E41"/>
<path d="M208.445 103.071L225.172 92.3277L216.747 81.0964L208.428 91.3588L182.508 92.9531C181.826 92.2772 180.963 91.8149 180.023 91.6225C179.084 91.4301 178.109 91.5159 177.218 91.8695C176.327 92.223 175.557 92.8291 175.003 93.6137C174.449 94.3983 174.135 95.3276 174.098 96.2883C174.062 97.2489 174.305 98.1995 174.798 99.024C175.291 99.8485 176.013 100.511 176.875 100.932C177.737 101.352 178.702 101.512 179.653 101.391C180.605 101.271 181.5 100.876 182.231 100.254L208.445 103.071Z" fill="#FFB6B6"/>
<path d="M240.697 77.3326C241.667 83.2247 223.334 94.476 223.334 94.476C223.334 93.093 212.392 103.533 211.898 102.387C210.494 99.1267 209.507 91.4057 207.546 90.1699C206.424 89.4632 214.301 82.824 214.301 82.824C214.301 82.824 218.425 78.6579 223.836 73.4031C225.339 71.889 227.199 70.7808 229.243 70.1815C231.287 69.5822 233.45 69.5114 235.529 69.9756C235.529 69.9756 239.726 71.4405 240.697 77.3326Z" fill="#E6E6E6"/>
<path d="M275.174 105.891L264.109 89.3471L253.091 98.032L263.498 106.156L265.636 132.11C264.977 132.808 264.534 133.683 264.362 134.629C264.19 135.575 264.296 136.55 264.668 137.437C265.039 138.323 265.66 139.082 266.454 139.621C267.248 140.159 268.181 140.455 269.139 140.471C270.098 140.487 271.04 140.223 271.852 139.711C272.663 139.2 273.309 138.462 273.709 137.589C274.11 136.716 274.249 135.744 274.109 134.793C273.969 133.842 273.556 132.953 272.92 132.233L275.174 105.891Z" fill="#FFB6B6"/>
<path d="M248.831 74.0989C254.685 73.0008 266.29 91.144 266.29 91.144C264.911 91.1736 275.551 101.924 274.418 102.443C271.198 103.919 263.522 105.072 262.331 107.065C261.65 108.205 254.865 100.447 254.865 100.447C254.865 100.447 250.624 96.401 245.271 91.0867C243.73 89.6125 242.586 87.7711 241.945 85.734C241.304 83.697 241.188 81.5305 241.607 79.4362C241.607 79.4362 242.978 75.197 248.831 74.0989Z" fill="#E6E6E6"/>
<path d="M278 243.508C278 243.573 277.988 243.637 277.963 243.697C277.938 243.756 277.902 243.811 277.857 243.856C277.811 243.902 277.757 243.938 277.698 243.963C277.638 243.988 277.574 244 277.51 244H162.041C161.911 244 161.786 243.948 161.694 243.856C161.602 243.764 161.55 243.639 161.55 243.508C161.55 243.378 161.602 243.253 161.694 243.161C161.786 243.069 161.911 243.017 162.041 243.017H277.51C277.574 243.017 277.638 243.029 277.698 243.054C277.757 243.078 277.811 243.115 277.857 243.16C277.902 243.206 277.938 243.26 277.963 243.32C277.988 243.38 278 243.444 278 243.508Z" fill="#CCCCCC"/>
<path d="M171.031 94.5232H30.8938C28.7044 94.5257 26.6053 95.399 25.0572 96.9516C23.509 98.5042 22.6382 100.609 22.6357 102.805V190.303C22.6382 192.499 23.509 194.604 25.0572 196.156C26.6053 197.709 28.7044 198.582 30.8938 198.585H171.031C173.221 198.582 175.32 197.709 176.868 196.156C178.416 194.604 179.287 192.499 179.289 190.303V102.805C179.287 100.609 178.416 98.5042 176.868 96.9516C175.32 95.399 173.221 94.5257 171.031 94.5232Z" fill="#6C63FF"/>
<path d="M171.031 94.5232H30.8938C28.7044 94.5257 26.6053 95.399 25.0572 96.9516C23.509 98.5042 22.6382 100.609 22.6357 102.805V190.303C22.6382 192.499 23.509 194.604 25.0572 196.156C26.6053 197.709 28.7044 198.582 30.8938 198.585H171.031C173.221 198.582 175.32 197.709 176.868 196.156C178.416 194.604 179.287 192.499 179.289 190.303V102.805C179.287 100.609 178.416 98.5042 176.868 96.9516C175.32 95.399 173.221 94.5257 171.031 94.5232ZM173.741 157.374C173.708 166.282 170.194 174.822 163.955 181.162C157.715 187.502 149.246 191.136 140.365 191.286C126.145 191.472 148.232 191.544 131.082 191.544C91.8666 191.544 50.9754 191.169 35.7184 190.925C33.711 190.883 31.7994 190.056 30.3916 188.621C28.9838 187.185 28.1915 185.254 28.1837 183.241V102.811C28.1845 102.09 28.47 101.399 28.9778 100.889C29.4856 100.378 30.1743 100.09 30.8932 100.087H171.026C171.744 100.088 172.434 100.375 172.943 100.884C173.451 101.393 173.739 102.083 173.741 102.804V157.374Z" fill="#3F3D56"/>
<path d="M153.781 44.139H47.0106C46.0659 44.1403 45.1446 44.4341 44.3726 44.98C43.6006 45.526 43.0154 46.2976 42.6969 47.1895L26.207 93.5851C25.9609 94.2776 25.8842 95.0192 25.9832 95.7476C26.0823 96.4761 26.3543 97.17 26.7763 97.7711C27.1984 98.3722 27.7582 98.8629 28.4086 99.202C29.059 99.5411 29.7812 99.7186 30.5142 99.7197L173.71 99.9745H173.717C174.474 99.9745 175.22 99.7859 175.888 99.4256C176.555 99.0653 177.123 98.5445 177.54 97.9101C177.957 97.2756 178.21 96.5472 178.278 95.7903C178.345 95.0333 178.224 94.2714 177.926 93.5729L157.99 46.9224C157.637 46.0959 157.05 45.3914 156.302 44.8966C155.554 44.4017 154.677 44.1383 153.781 44.139Z" fill="#3F3D56"/>
<path d="M178.297 94.5804C178.296 95.2025 178.17 95.8181 177.926 96.3899L157.991 132.3C157.636 133.125 157.048 133.827 156.3 134.321C155.552 134.815 154.676 135.079 153.781 135.08H47.0122C46.0672 135.08 45.1455 134.786 44.3728 134.241C43.6002 133.695 43.0142 132.923 42.6948 132.032L26.2081 96.3775C26.006 95.8095 25.9175 95.2071 25.9477 94.6048C25.9779 94.0024 26.1262 93.412 26.3841 92.8671C26.6419 92.3223 27.0043 91.8338 27.4506 91.4295C27.8968 91.0252 28.4181 90.7131 28.9847 90.5109C29.4749 90.3335 29.992 90.2426 30.5131 90.2424L48.0051 90.2094L55.1444 90.197L149.088 90.0317L156.232 90.0193L173.711 89.9863H173.716C174.93 89.9865 176.095 90.4706 176.955 91.3321C177.814 92.1936 178.296 93.362 178.297 94.5804Z" fill="#3F3D56"/>
<path d="M41.3996 160.157C43.5168 160.157 72.591 161.939 72.591 164.062C72.591 166.185 43.5168 167.846 41.3996 167.846C40.3829 167.846 39.4078 167.441 38.6889 166.72C37.9699 165.999 37.5661 165.021 37.5661 164.001C37.5661 162.982 37.9699 162.004 38.6889 161.283C39.4078 160.562 40.3829 160.157 41.3996 160.157Z" fill="#3F3D56"/>
<path d="M147.132 15.9144H57.1053C54.6926 15.9172 52.3796 16.8796 50.6735 18.5905C48.9675 20.3014 48.0078 22.6211 48.005 25.0406V135.08H153.781C154.649 135.083 155.5 134.835 156.232 134.366V25.0406C156.229 22.6211 155.269 20.3014 153.563 18.5905C151.857 16.8796 149.544 15.9172 147.132 15.9144Z" fill="#E6E6E6"/>
<path d="M112.77 23.3137H63.4331C61.2361 23.3159 59.1297 24.1917 57.5759 25.7493C56.022 27.3068 55.1476 29.4188 55.1444 31.622V135.081H149.088V59.7361C149.077 50.0797 145.247 40.822 138.439 33.9939C131.63 27.1658 122.399 23.3248 112.77 23.3137Z" fill="white"/>
<path d="M133.084 125.892H71.1491C70.6138 125.892 70.1003 126.106 69.7217 126.485C69.3432 126.865 69.1305 127.38 69.1305 127.917C69.1305 128.454 69.3432 128.968 69.7217 129.348C70.1003 129.728 70.6138 129.941 71.1491 129.941H133.084C133.619 129.941 134.132 129.728 134.511 129.348C134.89 128.968 135.102 128.454 135.102 127.917C135.102 127.38 134.89 126.865 134.511 126.485C134.132 126.106 133.619 125.892 133.084 125.892Z" fill="#E4E4E4"/>
<path d="M133.084 117.886H71.1491C70.6132 117.886 70.0992 118.099 69.7203 118.479C69.3413 118.859 69.1284 119.375 69.1284 119.912C69.1284 120.45 69.3413 120.965 69.7203 121.345C70.0992 121.725 70.6132 121.939 71.1491 121.939H133.084C133.62 121.939 134.133 121.725 134.512 121.345C134.891 120.965 135.104 120.45 135.104 119.912C135.104 119.375 134.891 118.859 134.512 118.479C134.133 118.099 133.62 117.886 133.084 117.886Z" fill="#E4E4E4"/>
<path d="M97.9967 109.883H71.1491C70.6137 109.883 70.1003 110.096 69.7217 110.476C69.3432 110.856 69.1305 111.371 69.1305 111.907C69.1305 112.444 69.3432 112.959 69.7217 113.339C70.1003 113.719 70.6137 113.932 71.1491 113.932H97.9967C98.5321 113.932 99.0455 113.719 99.4241 113.339C99.8027 112.959 100.015 112.444 100.015 111.907C100.015 111.371 99.8027 110.856 99.4241 110.476C99.0455 110.096 98.5321 109.883 97.9967 109.883Z" fill="#E4E4E4"/>
<path d="M133.084 93.1179H71.1491C70.6132 93.1179 70.0992 93.3314 69.7203 93.7114C69.3413 94.0914 69.1284 94.6069 69.1284 95.1443C69.1284 95.6818 69.3413 96.1972 69.7203 96.5772C70.0992 96.9573 70.6132 97.1708 71.1491 97.1708H133.084C133.62 97.1708 134.133 96.9573 134.512 96.5772C134.891 96.1972 135.104 95.6818 135.104 95.1443C135.104 94.6069 134.891 94.0914 134.512 93.7114C134.133 93.3314 133.62 93.1179 133.084 93.1179Z" fill="#E4E4E4"/>
<path d="M133.084 85.1153H71.1491C70.6138 85.1153 70.1003 85.3286 69.7217 85.7083C69.3432 86.0879 69.1305 86.6028 69.1305 87.1397C69.1305 87.6766 69.3432 88.1915 69.7217 88.5712C70.1003 88.9508 70.6138 89.1641 71.1491 89.1641H133.084C133.619 89.1641 134.132 88.9508 134.511 88.5712C134.89 88.1915 135.102 87.6766 135.102 87.1397C135.102 86.6028 134.89 86.0879 134.511 85.7083C134.132 85.3286 133.619 85.1153 133.084 85.1153Z" fill="#E4E4E4"/>
<path d="M97.9967 77.1087H71.1491C70.6132 77.1087 70.0992 77.3222 69.7203 77.7022C69.3413 78.0823 69.1284 78.5977 69.1284 79.1351C69.1284 79.6726 69.3413 80.188 69.7203 80.5681C70.0992 80.9481 70.6132 81.1616 71.1491 81.1616H97.9967C98.5326 81.1616 99.0466 80.9481 99.4256 80.5681C99.8045 80.188 100.017 79.6726 100.017 79.1351C100.017 78.5977 99.8045 78.0823 99.4256 77.7022C99.0466 77.3222 98.5326 77.1087 97.9967 77.1087Z" fill="#E4E4E4"/>
<path d="M133.084 60.3435H71.1491C70.6132 60.3435 70.0992 60.557 69.7203 60.937C69.3413 61.317 69.1284 61.8325 69.1284 62.3699C69.1284 62.9074 69.3413 63.4228 69.7203 63.8028C70.0992 64.1829 70.6132 64.3964 71.1491 64.3964H133.084C133.62 64.3964 134.133 64.1829 134.512 63.8028C134.891 63.4228 135.104 62.9074 135.104 62.3699C135.104 61.8325 134.891 61.317 134.512 60.937C134.133 60.557 133.62 60.3435 133.084 60.3435Z" fill="#6C63FF"/>
<path d="M133.084 52.3409H71.1491C70.6132 52.3409 70.0992 52.5544 69.7203 52.9345C69.3413 53.3145 69.1284 53.8299 69.1284 54.3674C69.1284 54.9048 69.3413 55.4203 69.7203 55.8003C70.0992 56.1803 70.6132 56.3938 71.1491 56.3938H133.084C133.62 56.3938 134.133 56.1803 134.512 55.8003C134.891 55.4203 135.104 54.9048 135.104 54.3674C135.104 53.8299 134.891 53.3145 134.512 52.9345C134.133 52.5544 133.62 52.3409 133.084 52.3409Z" fill="#6C63FF"/>
<path d="M97.9967 44.3343H71.1491C70.6132 44.3343 70.0992 44.5478 69.7203 44.9278C69.3413 45.3078 69.1284 45.8233 69.1284 46.3607C69.1284 46.8982 69.3413 47.4136 69.7203 47.7936C70.0992 48.1737 70.6132 48.3872 71.1491 48.3872H97.9967C98.5326 48.3872 99.0466 48.1737 99.4256 47.7936C99.8045 47.4136 100.017 46.8982 100.017 46.3607C100.017 45.8233 99.8045 45.3078 99.4256 44.9278C99.0466 44.5478 98.5326 44.3343 97.9967 44.3343Z" fill="#6C63FF"/>
<path d="M152.857 31.5332C161.539 31.5332 168.578 24.4742 168.578 15.7666C168.578 7.05893 161.539 -1.52588e-05 152.857 -1.52588e-05C144.174 -1.52588e-05 137.135 7.05893 137.135 15.7666C137.135 24.4742 144.174 31.5332 152.857 31.5332Z" fill="#6C63FF"/>
<path d="M150.712 23.9724C150.44 23.9724 150.173 23.909 149.93 23.7872C149.687 23.6654 149.476 23.4885 149.313 23.2707L145.024 17.5354C144.885 17.3512 144.784 17.1414 144.727 16.9181C144.669 16.6947 144.656 16.4621 144.688 16.2337C144.721 16.0052 144.798 15.7854 144.915 15.5868C145.032 15.3882 145.187 15.2147 145.371 15.0763C145.555 14.9379 145.764 14.8372 145.987 14.7801C146.21 14.723 146.442 14.7106 146.67 14.7436C146.897 14.7765 147.116 14.8542 147.314 14.9722C147.512 15.0901 147.684 15.246 147.822 15.431L150.628 19.1829L157.835 8.34151C158.092 7.95448 158.492 7.6858 158.947 7.59458C159.402 7.50336 159.874 7.59706 160.26 7.85508C160.646 8.1131 160.914 8.5143 161.005 8.97041C161.096 9.42653 161.003 9.9002 160.745 10.2872L152.167 23.1913C152.012 23.4247 151.803 23.6174 151.559 23.7532C151.314 23.889 151.04 23.9639 150.761 23.9718C150.744 23.9721 150.728 23.9724 150.712 23.9724Z" fill="white"/>
</g>
<defs>
<clipPath id="clip0_112_3321">
<rect width="278" height="244" fill="white"/>
</clipPath>
</defs>
</svg>
